<?xml version="1.0" encoding="UTF-8" standalone="no"?>
<svg id="svg4288" xmlns:rdf="http://www.w3.org/1999/02/22-rdf-syntax-ns#" xmlns="http://www.w3.org/2000/svg" height="495.83" viewBox="0 0 1865.34 495.82721" width="1865.3" version="1.1" xmlns:cc="http://creativecommons.org/ns#" xmlns:dc="http://purl.org/dc/elements/1.1/">
<path id="path4298" d="m1113.6 495.69c-4.8195-0.72434-14.248-4.1984-19.848-7.313-3.1087-1.7291-6.8531-3.7788-8.321-4.5549s-6.1713-4.8954-10.452-9.1539l-7.7829-7.7428-2.097 4.0256c-3.7341 7.1687-23.216 12.031-25.382 6.335-3.275-8.6138-6.9003-9.9548-13.003-4.8093-8.2208 6.9319-13.814 5.7122-16.606-3.6214-1.2036-4.0241-2.2554-5.3787-6.0054-7.7338-5.764-3.6199-6.546-5.1591-7.2324-14.236-0.33309-4.4041-1.0087-7.4098-1.666-7.4114-2.7764-0.007-15.564 3.3639-19.758 5.2075-11.371 4.9989-20.918-0.99659-18.143-11.393 0.97617-3.6572 0.88211-4.3305-0.80018-5.7281-5.2364-4.3502-2.0234-17.833 4.6489-19.508 1.7355-0.43557 3.3039-2.5744 5.9009-8.0471 1.9454-4.0996 4.4391-7.9366 5.5415-8.5265 2.9256-1.5657 2.494-3.1237-2.0913-7.5493-11.737-11.328-10.375-40.722 2.0442-44.103 4.5169-1.2296 14.595-9.6618 13.556-11.342-0.34-0.56 0.08-1.01 0.94-1.01 0.89 0 1.56-0.86 1.56-2 0-1.1 0.525-2 1.1667-2 0.64166 0 0.92147-0.24519 0.62179-0.54487-0.75976-0.75976 4.8548-6.2193 8.1464-7.9215 4.531-2.3431 10.135-0.30723 13.915 5.055 2.4737 3.5095 3.7103 4.4114 6.049 4.4114 3.2646 0 9.0854 2.9138 9.0953 4.553 0 0.57915 1.4461 3.0108 3.2058 5.4036 2.1533 2.9281 3.2299 5.5633 3.2925 8.0594 0.1449 5.7722 3.4921 13.005 5.963 12.884 2.4057-0.11726 7.5034-1.6484 6.045-1.8156-0.55-0.0631 1.475-2.5348 4.5-5.4928 8.5178-8.329 9.2857-9.2973 8.0018-10.091-0.6242-0.38576-1.3674-0.46882-1.6517-0.18458-0.2842 0.28424-1.3258-0.2332-2.3147-1.1499-0.9888-0.91667-2.9555-2.5667-4.3704-3.6667s-2.5933-2.3472-2.6188-2.7714c-0.1776-2.9635-5.8934-8.9841-10.678-11.248-8.5812-4.0596-13.364-12.86-8.798-16.186l2.6364-1.9205-1.6404-4.8317c-1.6281-4.7953-1.6211-4.8588 0.9252-8.4371 11.321-15.91 14.308-19.103 17.879-19.121 5.8496-0.0286 6.5797-1.5813 2.4606-5.2326-5.8604-5.1947-7.9993-11.379-8.2911-23.974-0.1404-6.0559-0.7352-11.308-1.3668-12.069-2.8284-3.408 4.7114-16.418 13.327-22.996 15.599-11.91 23.615-13.857 32.388-7.8694 3.3652 2.297 9.9175 5.9316 14.561 8.0768 10.456 4.8308 11.744 6.0232 15.532 14.377 3.4658 7.6437 4.5129 8.2822 4.8426 2.953 0.1276-2.0625 0.7215-5.2638 1.3196-7.114 0.7197-2.2261 0.8487-8.1458 0.3813-17.5-0.6889-13.787-0.649-14.21 1.6135-17.136 9.0093-11.651 21.423-12.653 24.785-2 1.538 4.8741 1.6765 5.0007 5.5039 5.0286 2.18 0.0159 4.1073 0.57184 4.3333 1.25 0.224 0.67176 1.1572 1.2292 2.0738 1.2387 7.1551 0.0742 10.232 16.897 4.7888 26.184-1.4403 2.4577-2.3301 4.7572-1.9773 5.11s-0.098 0.92519-1.0017 1.272c-0.9037 0.34679-1.6431 1.2574-1.6431 2.0235 0 0.76615-0.45 1.393-1 1.393s-1 0.45-1 1 1.164 1 2.5866 1c1.8099 0 4.1595 1.611 7.8239 5.3643 2.8805 2.9504 6.8218 5.8873 8.7586 6.5265 1.9367 0.63917 4.113 2.2678 4.8362 3.6191s2.1429 2.7198 3.1548 3.0409c1.012 0.32117 1.8468 1.1161 1.8552 1.7666 0.034 2.6591 1.9556-2.0241 1.9762-4.8174 0.017-2.294 0.8443-3.5599 3.5153-5.3789 3.8576-2.6271 4.0892-3.4545 1.9932-7.1211-1.8458-3.2289-1.8314-7.9778 0.032-10.441 0.8075-1.0676 1.4682-2.7551 1.4682-3.75 0-0.99488 0.4766-1.8089 1.059-1.8089 0.5825 0 0.7809-0.45 0.441-1s-1.4915-1-2.559-1c-1.0676 0-1.941-0.49551-1.941-1.1011 0-0.60563-2.8261-4.1536-6.2803-7.8844-3.4541-3.7308-7.1666-8.5228-8.25-10.649-1.0833-2.1261-2.3072-4.0156-2.7197-4.1989-0.4125-0.18334-0.75-0.93437-0.75-1.669 0-0.7346-0.644-2.6096-1.4312-4.1667-4.3-8.45-7.7-33.33-4.6-33.33 0.5717 0 1 3.0061 1 7.0184 0 7.1713 2.6927 19.232 5.9126 26.482 5.192 11.691 24.087 31.642 24.087 25.434 0-1.8802-2.0311-4.9341-3.2852-4.9395-6.5141-0.0283-23.715-30.015-23.715-41.343 0-5.484 0.9542-4.0353 2.6404 4.0086 1.9056 9.091 14.344 31.34 17.522 31.34 0.4043 0 1.949 1.125 3.4326 2.5 3.0904 2.864 4.237 3.1027 5.0262 1.0461 0.9402-2.4502 7.2786-5.5461 11.355-5.5461 5.1515 0 7.0246-0.82846 7.0246-3.107 0-1.0412 0.3401-1.893 0.7559-1.893 0.4157 0 1.367-1.3806 2.1139-3.0681 0.747-1.6874 2.4318-3.4763 3.7442-3.9752 1.3123-0.49895 2.386-1.3568 2.386-1.9062 0-1.4819 5.3758-3.991 10.764-5.0239 7.983-1.5303 16.68 4.297 22.348 14.973 1.3139 2.475 2.767 4.7767 3.2292 5.1149 1.0022 0.73325 3.1748 4.3529 4.8433 8.0693 1.9135 4.2619 6.7677 4.6436 8.8793 0.69814 0.554-1.0353 1.5567-1.8824 2.228-1.8824 0.6714 0 2.2489-2.2412 3.5056-4.9805 6.4184-13.991 16.881-19.961 22.292-12.721 7.5357 10.084 7.2768 9.3193 7.1578 21.146-0.077 7.6395 0.3388 12.018 1.3763 14.5 0.8175 1.9554 1.4163 4.9052 1.3307 6.5552-0.2541 4.8988-0.075 5.3324 2.7677 6.6954 3.2739 1.5698 5.2446 5.1463 5.2646 9.5546 0.014 3.14 0.1546 3.25 4.1474 3.25 7.1804 0 9.1231 3.6352 5.8262 10.902-2.2936 5.0552-1.9173 7.24 1.6494 9.577 3.833 2.5115 3.2997 11.738-0.8951 15.486-2.4696 2.2065-2.9283 3.4018-3.0592 7.9703-0.1642 5.7317-4.3752 12.065-8.0221 12.065-0.8975 0-1.6319 0.42243-1.6319 0.93873 0 1.8332-8.3293 2.2975-11.5 0.64096-1.65-0.86205-4.2952-1.5701-5.8782-1.5735l-2.8781-0.006 2.647 3.25c10.677 13.11 6.4834 36.482-7.8907 43.975-13.169 6.8655-28.891 4.5698-39.986-5.8388-6.3859-5.9907-8.128-6.5318-9.4908-2.9474-1.906 5.0133-9.4063 6.04-17.646 2.4154-4.295-1.8893-10.464-6.8288-8.5794-6.8699 0.3863-0.008 0.2499-0.34592-0.303-0.75-2.9257-2.1381-5.6051-17.192-3.5094-19.717 1.4961-1.8027 1.52-1.7966-7.7967-1.9885-6.7961-0.13996-7.4754-0.35615-9.6369-3.0668l-2.3253-2.9163-3.1414 3.3629c-3.4905 3.7365-10.483 4.0268-15.324 0.63614-1.2133-0.84984-2.5297-1.5452-2.9253-1.5452-0.646 0-0.376 8.2756 0.5928 18.168 0.3087 3.1518 0.032 3.7504-1.968 4.2523-1.2799 0.32125-2.6441 1.5956-3.0314 2.8318s-1.5476 3.3276-2.5784 4.6474c-1.5111 1.935-1.8009 3.678-1.4959 9 0.4951 8.6393-0.2333 14.1-1.8809 14.1-0.719 0-1.4572 0.43849-1.6406 0.97441-0.5824 1.7026-13.98 1.568-21.717-0.21815-9.4494-2.1813-18.91-0.32444-22.911 4.4971-1.3439 1.6193 5.0074 13.341 7.7226 14.252 2.1511 0.7222 5.5209 7.4942 3.7291 7.4942-1.8746 0-12.432-12.256-13.202-15.327-0.6777-2.7002-3.4541-5.8035-3.4541-3.8608 0 2.545 2.4152 6.9623 6.3652 11.642 8.5247 10.098 10.504 14.887 3.4684 8.3924-2.2915-2.1155-4.5415-3.8464-5-3.8464s-0.8355-0.5625-0.8379-1.25c0-0.6875-1.3577-3.275-3.012-5.75s-3.4697-6.1875-4.0343-8.25c-0.8737-3.192-1.4416-3.75-3.8165-3.75-3.0085 0-10.198-4.3115-14.08-8.4438-4.4825-4.7714-5.4952-2.6929-1.5745 3.2316 4.7569 7.1882 4.1773 14.697-1.3692 17.736-6.6889 3.6644-9.7373 8.4763-5.37 8.4763 0.8916 0 3.506 2.0241 5.8098 4.498 6.0484 6.495 6.4112 11.234 1.6324 21.323-1.2547 2.649-1.331 3.7091-0.3772 5.2364 2.04 3.2667 1.3455 5.8246-2.8041 10.326-2.2 2.3867-4.0017 5.1892-4.0037 6.2277-0.014 7.0978-11.575 13.825-17.921 10.428-7.5593-4.0456-1.9448 12.689 7.5741 22.576 7.1464 7.4225 10.577 9.5748 23.815 14.94 8.4249 3.4144 11.497 6.2272 5.4047 4.9487-5.0061-1.0505-11.639-4.1334-15.027-6.984-1.7-1.41-3.9-2.54-5-2.54-2.6 0-17.9-15.19-17.9-17.82 0-1.1358-0.45-2.3432-1-2.6831-0.55-0.33992-1.0068-1.604-1.0151-2.809-0.031-4.5317-2.8422-10.009-7.8884-15.37-7.2838-7.738-5.5562-7.9621 5.5316-0.71762 4.6193 3.0181 11.84 3.8234 15.405 1.718 4.3568-2.5736 5.3374-7.8577 1.7173-9.2537-2.1813-0.84113-2.1889-0.89045-0.25-1.6154 6.7443-2.5217 8.5106-3.539 9.9449-5.7281 2.1108-3.2215 1.1435-5.3751-3.0333-6.7536-4.2584-1.4054-4.5712-3.9708-0.4842-3.9708 9.8498 0 8.3458-16.22-1.9863-21.422-4.4689-2.25-6.7059-6.098-6.865-11.809-0.212-7.608-7.2324-4.6397-12.576 5.3172-5.2463 9.7754-13.81 18.525-20.718 21.169-3.4215 1.3094-2.7648-1.242 0.9311-3.6178 6.2765-4.0346 12.83-11.678 17.266-20.137 6.6286-12.641 13.353-15.591 18.262-8.0124 2.6306 4.061 3.1683 4.17 7.5092 1.5233 4.3014-2.6226 4.3758-7.2387 0.25-15.511-1.6459-3.3-2.9942-7.2007-2.9962-8.6682-0.01-6.874-2.8494-7.4717-10.958-2.3062-7.0854 4.514-10.354 2.9261-6.3998-3.1089 1.8165-2.7723 1.2703-3.9698-2.209-4.843-2.6404-0.6627-9.4375 2.5876-9.4375 4.5129 0 0.50789-2.9411 4.2957-6.5357 8.4174-5.6336 6.4596-6.3875 7.771-5.4619 9.5005 3.1491 5.8842 1.9773 23.211-2.2483 33.246-1.7982 4.2699-4.8778 7.1206-3.3272 3.0799 5.6233-14.654 3.6906-32.671-4.3998-41.015-3.4871-3.5965-5.0271-6.003-5.0271-7.8556 0-4.9914-3.1578-14.89-5.4961-17.228-2.9882-2.9882-3.8145-1.5795-2.5039 4.2688 1.7917 7.9951-1.8716 6.7813-4.4968-1.49-1.1194-3.5267-11.656-16.681-14.394-17.97-3.1268-1.4718-6.2396 1.3149-10.008 8.9598-1.5912 3.2279-4.0153 6.3262-5.8679 7.5-3.7132 2.3526-3.9802 3.5527-1.1797 5.3016 1.392 0.86929 1.8576 1.9016 1.4446 3.2028-0.33517 1.056-0.098 2.8756 0.52702 4.0434 1.8374 3.4333 0.3541 3.4209-4.0073-0.0334-3.4952-2.7682-4.584-3.1309-7.6641-2.5531-13.842 2.5968-15.301 29.867-1.9818 37.04l3.5737 1.9246 2.8316-2.7129c7.359-7.0503 26.532 1.306 37.587 16.381 4.8746 6.6477 2.6922 6.1561-5.1143-1.1521-9.6079-8.9946-20.054-14.417-27.086-14.061-1.808 0.0917-2.809 1.238-4.4284 5.0711-1.3794 3.2648-2.9759 5.3186-4.685 6.0265-2.5958 1.0752-8.6452 7.7596-7.7934 8.6114 0.24885 0.24884 2.3961 1.0152 4.7717 1.703 5.0135 1.4515 7.0765 4.3947 2.3516 3.355l-2.8804-0.63385 2.25 1.6147c3.5536 2.5502 2.7961 2.9016-6.221 2.8857-14.428-0.0254-19.913 14.469-5.6174 14.844 4.3847 0.11498 5.5908 2.0294 1.9971 3.17-3.9046 1.2393-6.5874 11.613-3.3269 12.864 2.4668 0.94658 10.235 0.71276 10.878-0.32742 0.69-1.11 10.46-4.06 13.49-4.06 1.1758 0 5.0253-1.35 8.5544-3s6.5967-3 6.8168-3 2.822-2.25 5.7821-5l5.3819-5h-4.2404c-4.8305 0-4.7161 0.14547-2.796-3.5554 1.5582-3.0035 0.6906-6.0718-2.0098-7.1081-1.5855-0.60841-1.9876-3.3365-0.4918-3.3365 0.5186 0 2.5628 0.95579 4.5427 2.124 3.918 2.3116 5.6205 1.9252 3.407-0.77322-1.2622-1.5388-1.1586-1.622 1.1075-0.88924 6.0427 1.9538 12.468 1.7836 14.428-0.38211 2.6059-2.8795 3.5093-2.6576 7.9919 1.9632 2.6839 2.7666 4.4182 3.8228 5.5 3.3494 2.4644-1.0784 13.08-1.4749 13.08-0.48853 0 0.48535-0.7749 1.1798-1.722 1.5432-1.4664 0.56273-1.5048 0.79497-0.2587 1.5651 0.8048 0.49738 1.4671 1.6911 1.472 2.6527 0 0.96159 1.5837 2.8114 3.5087 4.1107 4.0887 2.7597 4.4798 4.5863 1.0847 5.0659-3.9643 0.56003-15.085-6.4113-15.085-9.4565 0-3.1165-4.4544-2.5791-5.2959 0.63894-0.5922 2.2643-5.372 3.7084-6.9736 2.1069-0.8307-0.83072-0.6855-1.4494 0.5576-2.3768 1.1085-0.82692 1.4761-2.0198 1.0797-3.5038-0.7158-2.6796-2.993-2.8991-5.6001-0.53976-1.533 1.3873-2.046 1.4576-2.7169 0.37188-1.3434-2.1736-7.4023 2.538-9.5392 7.4179-1.3608 3.1076-3.5639 5.6209-9.9615 11.364-6.573 5.9005-8.5003 16.615-3.728 20.725 0.9228 0.79481 3.3445 2.8156 5.3814 4.4907 2.3596 1.9404 4.402 4.9178 5.628 8.2046 2.6627 7.1378 9.1057 8.4802 12.71 2.6482 0.3446-0.55757 2.4766-2.1816 4.7377-3.609l4.1112-2.5953 5.6267 6.2908 5.6267 6.2908 6.078-0.55114c6.2335-0.56523 12.278-3.7391 12.278-6.447 0-0.72157 0.4783-1.3119 1.0629-1.3119 0.5845 0 0.9827-0.7875 0.8848-1.75-0.3783-3.7194 0.099-4.1101 2.3876-1.9522 1.2844 1.2112 2.7469 2.9342 3.25 3.8287 3.4846 6.196 27.55 21.268 37.308 23.366 3.6353 0.78147 10.107 3.2876 10.107 3.914 0 0.76041-2.5603 1.1736-5 0.80696zm12.22-137.83c6.6578-2.7765 9.37-2.9155 17.97-0.92114 18.168 4.2134 28.068-5.2639 19.362-18.535-1.5664-2.3877-2.1728-4.4584-1.8303-6.25 0.6427-3.362 2.5332-3.4412 4.279-0.17922 5.426 10.139 11.258-12.33 7.3351-28.259-0.6-2.38-15.4-14.24-17.8-14.24-0.7587 0-1.6873-0.49812-2.0636-1.1069-1.9713-3.1896 10.029 1.8817 16.066 6.7895 18.062 14.684 23.946 16.026 26.527 6.0504 0.6024-2.3281 1.9296-5.4008 2.9495-6.8282 5.6202-7.8658 2.6215-16.905-5.6083-16.905-2.7363 0-4.2453-0.39009-3.8684-1 0.3399-0.55 1.6797-1 2.9772-1 5.9688 0 7.3827-3.3918 2.8879-6.9274-1.8455-1.4517-4.0922-2.0726-7.5-2.0726-5.3128 0-5.5901-0.38131-3.3713-4.6357 3.9782-7.6278 0.9836-16.088-7.7755-21.968-2.3201-1.5573-6.2288-4.7586-8.686-7.114-12.158-11.654-23.994-4.2108-25.89 16.279-0.7695 8.3179-2.7487 14.459-5.1352 15.934-1.3545 0.83712-1.2744-1.1277 0.1548-3.7982 0.6391-1.1941 1.3251-6.002 1.5244-10.684 0.622-14.612 6.0159-26.013 12.306-26.013 3.0971 0 9.6726-9.4291 12.335-17.688 2.4282-7.5324 2.1838-11.892-0.836-14.911-2.9515-2.9515-4.0057-2.5801-4.8645 1.7138-0.6945 3.4723-4.5547 10.291-5.3663 9.4796-0.2812-0.28112 0.2202-2.3389 1.114-4.5728 2.0837-5.2075 2.1681-8.595 0.1252-5.0212-1.277 2.2338-1.4363 2.2871-1.4962 0.5-0.1798-5.366-6.716-9.189-7.658-4.4792-0.3323 1.6614-1.0571 3.3007-1.6106 3.6429-1.0475 0.64738-0.5024-8.2616 0.7477-12.221 1.2114-3.8365-2.3229-6.6638-6.4829-5.186-9.7089 3.449-10.412 5.3154-10.109 26.852 0.2467 17.565-0.6768 24.644-4.1303 31.658-1.22 2.4778-0.3828 4.6175 5.178 13.234 3.4598 5.361 3.8608 10.788 1.3788 18.662-2.5708 8.1554-3.7048 6.6489-2.9609-3.9337 0.7147-10.166 0.6094-10.48-6.0332-17.981-2.528-2.8548-3.3233-4.6659-3.3233-7.5685 0-8.7871-3.8265-18.108-11.054-26.929-2.1618-2.638-6.2428-1.5384-5.5673 1.5 3.6597 16.463 2.9341 19.493-1.3773 5.75-1.5694-5.0023-2.7439-6.5-5.0977-6.5-1.0851 0-2.5329-1.3455-3.4969-3.25-7.0201-13.869-24.114-11.584-38.186 5.1044-8.076 9.5776-7.8546 14.685 1.0084 23.273 5.8894 5.7064 5.5547 6.9986-1.902 7.3437l-4.8262 0.22335 0.3226 3.9028c0.4657 5.633 4.9978 13.363 9.107 15.533l3.4296 1.8111 5.4716-3.1305c14.508-8.3009 37.649 0.74631 46.706 18.26 2.1615 4.1799 1.8484 4.2467-2.2868 0.48759-19.457-17.687-18.694-17.154-26.646-18.624-6.0276-1.1143-12.078 0.87657-20.826 6.853-2.3531 1.6076-6.6174 3.4772-9.4762 4.1548-4.0765 0.96623-5.7962 2.0222-7.9713 4.8948-1.5253 2.0145-4.1988 5.0188-5.9411 6.6761-4.3616 4.149-6.2241 10.457-4.0177 13.608 2.1754 3.1057 2.0516 4.7154-0.5229 6.8001-5.5235 4.4727 0.7588 10.036 12.221 10.821 7.9512 0.54498 10.104 1.674 5.4302 2.8471-2.6933 0.67598-3.2648 1.9337-1.25 2.7512 0.9842 0.39934 0.9718 0.70306-0.058 1.4282-1.8195 1.2811-0.4878 6.0026 1.9074 6.7628 1.0453 0.33178 1.9006 0.95067 1.9006 1.3753 0 0.42466 1.2375 1.3476 2.75 2.0509 11.312 5.2606 21.15 2.7801 33.25-8.3834 10.928-10.082 22.714-13.62 13.529-4.0604-22.58 23.5-6.6401 50.103 22.691 37.871zm-10.2-27.47c0-0.56419 0.5078-3.0423 1.1284-5.5069 1.4395-5.717 0.8241-6.2328-3.501-2.9339l-3.504 2.6726 0.055-4.0072c0.04-2.8816 0.7247-4.6361 2.4383-6.246 2.5504-2.396 3.1003-5.7728 1.2426-7.6304-0.8538-0.85381-0.6267-2.4746 0.9038-6.45 1.1242-2.9203 2.7111-7.1096 3.5264-9.3096 2.0094-5.4224 3.3042-5.3461 9.7102 0.57154 4.9927 4.6121 5.0772 5.1737 0.5 3.3215-0.825-0.33384-1.5-0.16133-1.5 0.38337s0.8977 1.2251 1.995 1.512c2.6352 0.68914 3.5284 3.2675 2.1669 6.2556-1.3604 2.9856-4.1619 2.2589-4.1619-1.0796 0-5.6972-4.8017-6.902-8.4491-2.12-2.834 3.7155-3.4925 7.9542-1.0928 7.0333 1.4578-0.55941 2.1372 1.0651 2.7619 6.6045 0.3043 2.6975 5.517 4.0614 6.9097 1.8079 0.3819-0.61792 2.1108-1.1235 3.8421-1.1235 3.0955 0 3.1369-0.0636 2.5-3.8333-0.5085-3.0103-0.3296-3.8333 0.8333-3.8333 1.9179 0 2.5092-1.6631 2.2295-6.2704-0.2685-4.4217-0.5865-4.3617 6.9654-1.3138 3.3 1.3318 6.7875 2.669 7.75 2.9715 3.3574 1.0551 1.7099 2.3371-3.7243 2.8979-8.975 0.92631-9.2683 2.2221-1.7376 7.6766 5.3237 3.856 4.6571 5.4879-1.9233 4.7086-3.439-0.40729-4.8693-0.22361-4.8801 0.62672-0.04 3.1371-1.6643 3.9589-4.3487 2.2-3.3079-2.1674-4.4415-0.24653-2.7382 4.6396 1.7927 5.1426 0.6936 6.5976-2.5407 3.3633-2.0681-2.0682-3.0098-1.8821-3.7957 0.75l-0.6718 2.25-1.0976-2.25c-1.3418-2.7505-3.4448-2.9194-4.2627-0.34238-0.6535 2.0589-3.5293 3.6917-3.5293 2.0038zm-23-26.884c0-0.62232 1.35-1.6021 3-2.1773 3.4388-1.1988 3.9851-2.8502 0.9428-2.8502-4.1285 0-10.943-2.2534-10.943-3.6187 0-0.75971 0.7556-1.3813 1.679-1.3813 4.444 0 8.2742-2.3381 7.6838-4.6905-0.3188-1.2702-0.1606-2.3095 0.3516-2.3095 2.0445 0 13.286 6.0612 13.286 7.1635 0 0.64844 0.7696 2.0294 1.7102 3.0688 2.1038 2.3246 1.1676 3.1096-6.2102 5.2076-8.4432 2.4009-11.5 2.8229-11.5 1.5876zm37.189-14.066c-2.8683-2.6722-2.7229-5.0257 0.4534-7.3411 2.1192-1.5448 2.7302-1.6356 3.4263-0.50941 0.703 1.1375 1.3484 1.0746 3.7937-0.3699 5.9888-3.5377 5.7975-0.24312-0.4146 7.1395-3.0787 3.6588-4.297 3.8403-7.2588 1.0809zm163.5 55.978c8.8-3.33 14.3-13.27 14.3-25.93v-9.0567l-8.0769-8.4131c-12.659-13.186-17.443-22.038-10.298-19.052 3.0599 1.2785 3.5398 1.804 2.3581 2.5822-4.028 2.6527 15.748 11.93 25.431 11.93 8.1226 0 12.585-4.026 12.585-11.354 0.0001-4.683 0.3152-5.3979 3.5-7.939 6.8383-5.4562 4.833-11.675-4.25-13.179-4.8171-0.79797-5.6139-2.2384-1.5-2.7118 2.4248-0.279 2.7875-0.78943 3.0668-4.3164 0.1743-2.2 0.7368-4.4275 1.25-4.95 2.0814-2.1189 0.9209-4.4594-2.7081-5.4614-5.4408-1.5023-8.3587-4.7088-8.3587-9.1854 0-3.446-0.3023-3.8472-3.75-4.9773-2.0625-0.67605-4.65-1.7824-5.75-2.4586-1.1-0.67617-3.1879-1.5041-4.6397-1.8397-3.3514-0.77488-4.213-3.0289-2.7974-7.3182 1.649-4.9966-0.7861-8.4985-5.3188-7.6489-6.3965 1.199-10.744 7.5308-10.744 15.647 0 11.201-10.266 36.254-13.36 32.603-0.3799-0.44841 0.6124-12.456 2.3892-28.911 0.8392-7.7712 0.8426-11.775 0.013-15.405-2.7247-11.928-9.1302-21.075-7.6094-10.866 0.391 2.6246 0.9708 6.5194 1.2885 8.6551 0.9159 6.1578-1.9389 4.0485-3.3267-2.4578-7.0446-33.028-20.348-44.614-35.145-30.609-1.7875 1.6919-3.25 3.5103-3.25 4.0408 0 0.53055-1.4358 2.2465-3.1906 3.8132-2.4676 2.2031-2.9208 3.1184-2 4.0392 0.6548 0.65484 1.1906 2.1356 1.1906 3.2906s0.5325 2.6325 1.1833 3.2833c2.6489 2.6489-0.3499 2.2246-4.3725-0.61865-8.3604-5.9093-16.811-3.7664-16.811 4.2628 0 2.5333-1.4351 7.3639-3.686 12.407-1.5049 3.372-1.1375 7.4681 0.8888 9.9097 0.6768 0.81545 3.8386 1.2556 9.0196 1.2556 8.9184 0 8.4386-0.30474 18.598 11.812 2.8266 3.3713 6.6417 6.3725 11.036 8.6819 6.5317 3.4323 10.715 9.0138 14.994 20.006 1.3331 3.4245-3.9545-3.6714-6.8505-9.1932-3.2974-6.2871-3.8283-6.7941-9.17-8.7566-5.5336-2.033-12.186-7.335-17.984-14.333l-2.6539-3.2033-8.8877 0.33358c-11.406 0.42813-13.727 1.816-15.922 9.5224-0.8822 3.0968-2.0041 6.058-2.4932 6.5805-2.4845 2.6541-0.979 11.594 2.2474 13.347 8.0886 4.3928 9.1185 6.589 10.53 22.454 0.4561 5.1272 0.231 6.0834-2.0774 8.8267-2.9984 3.5635-3.3446 6.71-0.8388 7.6248 0.9625 0.35136 2.8232 1.4622 4.1349 2.4686 4.8548 3.7249 20.595-0.49669 31.245-8.3799 5.9033-4.3698 7.741-4.2886 3.4171 0.15101-2.1742 2.2323-4.4408 4.0587-5.0369 4.0587-11.02 0-15.36 23.987-5.8904 32.558 9.4052 8.5132 14.477 7.0986 20.367-5.6808 3.3061-7.1726 4.9311-8.8093 2.8666-2.8871-1.0966 3.1459-0.9831 3.4554 2.2289 6.0769 3.9867 3.2537 4.3997 3.1468 4.7328-1.225 0.4548-5.9692 2.1848-5.6535 2.1848 0.39865 0 5.2799 1.2662 8.3443 2.2789 5.5152 0.2473-0.69093 0.9588 0.58481 1.5812 2.835 1.7109 6.1862 3.4942 7.2647 12.668 7.6615 4.3847 0.18965 8.9554 0.43538 10.157 0.54607 1.2017 0.11068 3.4517-0.27636 5-0.86009zm-29.236-31.407c-0.797-1.9073-1.449-4.3558-1.449-5.441 0-2.6377-1.4845-3.4172-3.0091-1.5801-1.4971 1.8038-4.3965 1.9898-3.7265 0.23899 0.4008-1.0473 2.9974-9.7192 4.3755-14.613 0.2832-1.0056 0.7275-1.0774 1.6957-0.2738 0.9484 0.78709 1.6237 0.77711 2.4368-0.036 0.8332-0.83314 1.773-0.70023 3.6239 0.51252 2.6207 1.7172 4.9071 1.3836 7.8522-1.1457 1.6004-1.3745 1.8445-1.226 2.8833 1.7538 0.6241 1.7904 2.1998 5.2584 3.5015 7.7065 3.4155 6.4237 2.5135 7.2202-3.2222 2.8453-4.2718-3.2583-4.0487-3.4199-4.8316 3.5-0.704 6.2229-2.0203 7.6316-3.504 3.75-0.8277-2.1653-0.8861-2.137-1.5513 0.75-0.3802 1.65-0.8645 3.5625-1.0763 4.25-0.7081 2.2984-2.5354 1.2849-3.9989-2.2179zm-15.478-10.479c0.8075-1.5088 0.6775-2.1505-0.5777-2.853-1.3432-0.75167-0.875-1.4088 2.7434-3.8506 9.1856-6.1989 10.776-4.3784 3.2261 3.693-4.7533 5.0816-7.2446 6.4727-5.3918 3.0106zm35.471-4.8187c-3.0432-2.1133-5.9038-9.2588-3.692-9.2223 0.6341 0.0105 3.1909 3.416 6.5497 8.7239 0.8792 1.3894-1.0821 1.7314-2.8577 0.49844zm-20.3-9.43c-1.6005-1.6005-1.5178-2.8 0.193-2.8 1.5632 0 2.9142-2.6939 2.0512-4.0902-0.8535-1.381-3.0504-1.0892-4.4442 0.59024-3.699 4.457-5.1764 0.26754-1.75-4.9622 3.1269-4.7726 8.7044-5.5141 8.766-1.1654 0.01 0.62016 1.3522 2.6436 2.9855 4.4965 3.1968 3.6267 3.1959 5.257 0 4.4206-1.3763-0.35993-1.999-0.0302-1.999 1.0587 0 0.8698-0.8704 2.0473-1.9343 2.6166-2.4106 1.2901-2.4108 1.2901-3.8657-0.16482zm-24.2-3.4713c0-0.36919 0.6955-1.4398 1.5456-2.3791 1.435-1.5858 1.1502-1.7572-3.9843-2.3987-6.5659-0.82036-8.3836-2.5509-2.6793-2.5509 4.8312 0 6.2342-1.6251 2.5969-3.008-2.9473-1.1206-2.8437-3.7053 0.1248-3.1146 1.043 0.20753 2.5713 0.43253 3.3963 0.5 2.1583 0.17652 2.4743-4.7601 0.4352-6.7992-2.8136-2.8136-0.7786-2.9418 2.8435-0.17909 1.8756 1.4306 3.8176 2.611 4.3157 2.6232 3.3707 0.0828 5.4943 3.5781 3.9608 6.519-0.8486 1.6273-1.5525 3.8587-1.5644 4.9587-0.031 2.8984-1.065 4.0266-4.89 5.3362-3.82 1.3078-6.1008 1.492-6.1008 0.49254zm40-7.4972c-9.1628-2.5868-6.1125-9.8315 4.1394-9.8315 0.7007 0 0.8891 1.1073 0.5106 3-0.72 3.6 0.5589 3.8296 7.7261 1.3875 5.5353-1.8861 7.1779-1.2425 2.7168 1.0644-1.7011 0.87968-3.0929 2.2147-3.0929 2.9668 0 2.6394-5.4024 3.2754-12 1.4128zm-199.5 63.534c2.75-0.90438 5.5083-1.7717 6.1296-1.9274 0.6212-0.15566 1.8111-2.2304 2.6442-4.6106 0.833-2.3802 1.8354-5.1151 2.2274-6.0776 1.1312-2.7774-0.6548-2.0342-5.4037 2.2488-2.4214 2.1838-6.3122 4.895-8.6462 6.0248-7.5451 3.6525-5.1644 7.043 3.0487 4.342zm202.9-100.61c0.8676-3.9894 1.9964-10.756 2.5085-15.038 1.4865-12.426 6.189-17.117 16.552-16.512l5.0644 0.29582 0.07 7.3818c0.073 7.6891 2.2314 11.717 4.867 9.0813 1.8321-1.8321 0.7116-28.742-1.3934-33.463-4.0598-9.1049-11.515-12.087-14.305-5.7224-0.6563 1.4973-2.666 5.0633-4.466 7.9244s-3.3061 5.7861-3.3469 6.5c-0.1901 3.328-3.7742 9.4211-3.8516 6.548-0.078-2.8854-2.3069-3.7781-3.7455-1.5-0.4342 0.6875-0.855 6.2-0.9353 12.25-0.08 6.05-0.477 14.256-0.8817 18.236-1.3656 13.429 1.2297 16.129 3.8633 4.0179zm299.1 205.62c-5.2045-2.8756-10.506-7.485-12.056-10.483-1.2651-2.4465-2.1022-2.8921-5.4324-2.8921-6.4997 0-14.897-3.6915-17.173-7.5492-1.4803-2.509-3.2476-3.7481-7.1523-5.0147-11.458-3.7167-16.174-9.6166-15.814-19.785 0.1437-4.0589-0.2519-5.2741-2.3497-7.2182-1.3873-1.2857-2.5224-2.6231-2.5224-2.972 0-0.34885-1.3516-2.5163-3.0035-4.8166-5.4849-7.6376-5.5492-9.8883-0.461-16.135l4.4158-5.4214-4.8195-2.7092c-11.04-6.2058-13.276-31.652-3.3526-38.154 1.2854-0.84224 3.7085-2.8125 5.3847-4.3782 3.8527-3.5989 10.838-4.035 13.568-0.84689 2.5912 3.0263 3.2889 2.434 2.6505-2.25-0.3954-2.9006 0.054-6.155 1.4142-10.25 1.0964-3.3 2.2863-7.35 2.6441-9 3.5887-16.547 38.53-9.28 38.563 8.0206 0 1.0886 0.9021 3.4527 2 5.2535 1.098 1.8008 1.9963 3.8769 1.9963 4.6136 0 1.6481 4.8366 6.6122 6.4425 6.6122 0.6802 0 1.9058-3.8399 2.9286-9.1754 2.8654-14.947 6.7888-19.823 15.956-19.827 4.1633-0.002 6.3372-0.70439 11.135-3.5972 9.6229-5.8024 16.424-5.5033 14.815 0.65155-1.2311 4.7077 5.9724 7.0547 7.7007 2.509 1.5527-4.0838 10.023-6.2318 10.023-2.5418 0 0.53952 0.6143 0.98095 1.3651 0.98095 5.5802 0 7.6983 5.9236 5.1369 14.366-0.812 2.6764-1.2058 5.304-0.8752 5.8389 3.8992 6.3091 2.7872 22.395-1.7699 25.602-3.6019 2.5347-2.5771 11.387 1.8931 16.354 10.886 12.095 10.873 12.086 14.164 10.383 1.6425-0.84933 3.6355-1.5442 4.429-1.5442 0.7934 0 1.7016-0.675 2.0182-1.5s1.4416-1.5 2.5-1.5 2.1834-0.675 2.5-1.5 1.2166-1.5 2-1.5 1.6834-0.675 2-1.5 1.2648-1.5 2.107-1.5c0.8423 0 1.5314-0.46375 1.5314-1.0306 0-0.5668 1.6284-2.4603 3.6186-4.2077s4.7658-4.9945 6.1679-7.2156c1.5245-2.415 2.7272-3.5049 2.9918-2.7112 1.4781 4.4344-16.053 21.36-28.462 27.479-6.4775 3.1942-7.8492 4.6856-4.3094 4.6856 11.253 0 35.277-24.792 40.928-42.236 1.6715-5.1594 3.5461-6.1444 2.6551-1.3951-0.963 5.1333-5.788 15.536-8.94 19.276-1.4578 1.7294-2.6506 3.4737-2.6506 3.8762 0 1.5474-15.557 16.581-17.72 17.124-1.2538 0.31469-2.2797 0.92159-2.2797 1.3486 0 0.42707-2.3625 1.544-5.25 2.482-7.0153 2.279-8.5999 3.9122-9.3607 9.6479-0.3533 2.663-1.2604 5.3548-2.0158 5.9817-0.7554 0.62694-1.3735 1.5255-1.3735 1.9969 0 0.47134-2.4347 3.2287-5.4103 6.1276-3.8161 3.7175-5.7428 6.5229-6.5386 9.5206-0.6205 2.3375-1.5608 4.25-2.0896 4.25s-0.9615 1.6905-0.9615 3.7566c0 5.9352-1.617 10.094-5.7062 14.675-2.0866 2.3378-5.0505 5.897-6.5864 7.9094-3.5679 4.6746-9.2855 5.113-15.112 1.1589-5.1397-3.4879-7.2287-3.2293-9.3372 1.1558-4.4457 9.2457-20.556 15.251-28.758 10.719zm18.449-6.439c3.443-2.3495 5.5089-4.7531 7.1909-8.3662 1.2979-2.7882 3.3724-5.5138 4.6099-6.0567 2.7637-1.2125 2.7875-2.0931 0.2187-8.086-2.4666-5.7544-1.9763-8.4395 0.5801-3.1769 1.1451 2.3574 2.5197 3.75 3.7015 3.75 1.3647 0 2.8295 2.0553 5.345 7.5 3.6842 7.9738 3.8965 8.1443 7.8816 6.3286 2.8572-1.3018 4.0649-4.5335 3.1125-8.3286-0.7124-2.8381-0.3781-3.0095 2.4379-1.2508 3.4296 2.1418 9.0618-7.1857 7.2382-11.987-0.2586-0.68086-3.6867-2.8114-7.6179-4.7346-7.2-3.52-16.2-10.52-13.5-10.52 0.7947 0 3.7058 1.5225 6.469 3.3833 7.825 5.2697 14.319 7.2729 17.91 5.5247 4.1383-2.0148 4.1654-3.5173 0.098-5.4473-3.641-1.7278-4.5328-3.233-2.3084-3.8962 4.9839-1.4859 5.2235-1.6535 3.722-2.603-0.8096-0.51199-2.4294-0.93779-3.5996-0.94621-2.137-0.0154-4.8041-2.2503-3.8382-3.2162 0.2843-0.28426 2.861-0.0908 5.7261 0.42997 17.096 3.1074 26.014-19.831 10.774-27.712-1.5053-0.77837-3.515-2.6029-4.4661-4.0545-1.3474-2.0563-2.2636-2.5051-4.1485-2.0321-1.7637 0.44266-2.4192 0.19558-2.4192-0.91187 0-0.83548-0.3375-1.4066-0.75-1.269-1.5223 0.50742-1.519-0.82918 0.01-3.7846 2.9154-5.6377 3.1183-9.7993 0.711-14.585-4.2507-8.4507-6.2724-9.3839-12.772-5.8958-2.0339 1.0915-6.1731 3.1025-9.1981 4.4688-5.1088 2.3075-5.8556 3.1088-10.5 11.265-5.6804 9.9761-7.6925 8.9169-2.9855-1.5717 3.2319-7.2016 7.929-11.878 16.486-16.413 11.21-5.9414 16.679-5.4584 20.598 1.8188 2.2381 4.1559 4.1503 4.4246 4.9639 0.69732 0.3302-1.5125 1.0582-3.9628 1.6177-5.4451 0.768-2.0348 0.5997-3.9524-0.687-7.8263-1.2368-3.7236-1.5188-6.6161-1.0279-10.545 1.1855-9.4887-1.4643-12.407-5.4337-5.9847-1.2392 2.0051-2.6885 3.2357-3.4614 2.9391-0.7313-0.28062-2.4849 0.96596-3.8969 2.7702-3.5598 4.5486-4.3999 2.9379-1.2612-2.418 3.2306-5.5125 3.2423-6.2153 0.069-4.136-1.6783 1.0997-3.6572 1.4661-5.9281 1.0976-3.0782-0.49953-3.5077-0.26947-4.4286 2.3723-0.5609 1.609-1.4821 2.9255-2.0471 2.9255-0.6895 0-0.7066-0.8434-0.052-2.5651 1.1991-3.1541 1.2465-9.4584 0.085-11.292-2.2613-3.5689-10.101 3.2013-10.125 8.7434-0.01 1.9875-0.4515 4.2886-0.9847 5.1136-0.7054 1.0915-0.974 0.27439-0.9864-3l-0.017-4.5-5.4031-0.1883c-11.758-0.40978-21.432 22.128-14.222 33.133 2.3867 3.6425 4.8155 16.382 3.8169 20.02-0.8377 3.0524-4.1983-7.4132-4.1912-13.053 0-1.3454-2.9679-4.7919-8.3513-9.6924-6.76-6.1537-8.5898-8.4472-9.5903-12.021-3.4838-12.443-10.715-21.441-18.018-22.421-4.4986-0.60338-4.8586 0.0697-2.9561 5.5272 2.1864 6.2718 0.3297 6.911-2.5338 0.8723-3.4066-7.1838-9.5482-8.5552-9.5482-2.132 0 0.6797-0.8901 3.1974-1.978 5.595-2.7429 6.0448-2.5158 9.5517 1.0856 16.759 3.373 6.7499 3.216 8.6927-0.426 5.2712-4.4624-4.1922-9.5267-0.33172-5.7925 4.4155 4.022 5.1131 2.259 5.9688-2.7922 1.3552-1.8418-1.6823-3.9341-2.834-4.6495-2.5595-0.7155 0.27453-2.491-1.0613-3.9458-2.9686l-2.645-3.4677-4.057 3.2132c-4.7591 3.7693-6.7996 8.0485-6.7996 14.26 0 21.252 14.676 30.607 25.146 16.028 4.9542-6.8986 12.238-9.79 19.656-7.8031 1.4812 0.39673 3.3548 2.619 5.2578 6.2363 4.1255 7.842 4.8131 8.8709 10.305 15.422 7.5548 9.0119 3.7136 9.0234-4.2395 0.0127-5.6346-6.3838-5.7642-6.5617-8.2238-11.281-5.1237-9.83-12.618-9.3181-21.455 1.4656-2.1277 2.5966-6.1675 6.0185-8.9773 7.6042-15.112 8.5288-11.139 23.896 6.1788 23.896 5.1338 0 7.0096 1.15 3.8521 2.3616-2.1796 0.8364-1.8381 2.6384 0.5 2.6384 1.1 0 2 0.45 2 1s-1.2375 1.0061-2.75 1.0136c-6.7483 0.0335-9.4379 2.6654-4.1759 4.0862 2.3767 0.6417 2.36 0.67976-0.8241 1.8754-3.8535 1.447-3.9652 2.1352-1 6.1591 6.2112 8.4289 20.216 12.413 27.096 7.7088 11.952-8.1722 17.588-18.518 9.3614-17.183-4.9482 0.80299-10.908-2.3086-8.2063-4.2843 1.0349-0.75671 2.4706-1.3758 3.1904-1.3758 1.7943 0 1.6545-1.9302-0.1911-2.6384-2.2368-0.85836-1.8256-1.8519 1.25-3.0198l2.75-1.0442-3-1.2154c-3.2156-1.3028-7.5-4.8884-7.5-6.2768 0-0.4653 1.7821 0.0631 3.9602 1.1743 4.7677 2.4323 5.4366 2.4969 4.6508 0.44886-0.789-2.056 10.005-0.96356 12.556 1.2707 2.9274 2.5645 7.8332-1.5679 7.8332-6.5983 0-4.6388 5.6557-5.2201 10.385-1.0674 2.0588 1.8076 3.7132 2.6159 4.0939 2 0.3513-0.56846 1.5006-1.0336 2.554-1.0336 1.0899 0 2.5442-1.2162 3.3745-2.8218 1.004-1.9414 2.7834-3.2185 5.7034-4.0934 2.3343-0.69937 5.3033-1.9655 6.5977-2.8137 3.4742-2.2764 3.9227-0.81043 0.8641 2.8245-3.9223 4.6613-3.1703 7.3249 2.177 7.7118 4.3194 0.31252 5.9641 2.5975 2.7557 3.8287-2.4627 0.94503-0.6301 2.3638 3.0533 2.3638 4.4239 0 4.4015 1.5718-0.049 3.4313-2.4712 1.0325-3.3156 1.9121-2.893 3.0134 0.3282 0.85541 0.2111 1.5504-0.2602 1.5445-2.4257-0.0306-10.955-3.2208-12.606-4.7148-2.0383-1.8446-10.823-3.2756-19.662-3.203-6.1632 0.0506-10.498 2.6924-11.408 6.9528-0.2966 1.3883-1.8903 4.2242-3.5415 6.3019-1.6511 2.0777-3.3136 5.2168-3.6945 6.9758-0.8799 4.0643-3.7064 8.3065-8.3172 12.483-3.4637 3.1374-3.5079 3.2573-0.9856 2.669 2.8377-0.66184 4.8337 0.95812 2.3534 1.9099-0.8219 0.31537-1.4943 1.4572-1.4943 2.5374 0 1.0857-0.8944 2.2478-2 2.5988-2.0865 0.66222-2.7795 2.5-0.9428 2.5 3.6255 0 10.457-2.6776 13.078-5.1261 4.9948-4.6659 5.5474-2.8502 0.8945 2.9397-9.3456 11.629 11.37 23.369 24.92 14.122zm1.1-24.89c0-4.4638-2.202-5.4076-2.8198-1.2086-0.5881 3.9968-4.1172 4.7966-5.4607 1.2374-1.1-2.87-4.7-4.46-4.7-2.07 0 0.55-0.4896 1-1.0879 1-0.7152 0-0.8564-1.3704-0.4121-4 0.6816-4.0346-0.803-5.7713-1.9214-2.2475-0.8038 2.5324-4.5786 4.7934-4.5786 2.7424 0-0.83713 0.5455-2.3955 1.2121-3.463 0.6667-1.0675 0.858-2.2952 0.425-2.7281-0.4329-0.43293-1.2257-0.003-1.7618 0.95452-2.9277 5.2314-3.3718 1.159-0.5151-4.7226l3.1398-6.4642 9.2133 0.53453 9.2133 0.53453 0.6659-2.6532c0.52-2.0718 1.1192-2.5346 2.7347-2.1122 1.1378 0.29755 2.6295 0.0756 3.3149-0.49324 0.919-0.7627 2.7705 0.46637 7.052 4.6813 3.1933 3.1436 6.8184 6.3796 8.0559 7.1911 1.2375 0.81154 2.25 2.3238 2.25 3.3605 0 2.2444-0.8283 2.3294-3.4411 0.35319-1.0677-0.80751-3.1152-1.4682-4.55-1.4682-1.4349 0-3.1489-0.54-3.8089-1.2-0.9333-0.93333-1.2-0.61311-1.2 1.441 0 3.7143-1.9326 4.4877-4.1299 1.6528-2.4915-3.2146-3.834-1.2177-3.8548 5.7337-0.01 3.3224-0.5434 5.5658-1.5153 6.3724-1.2929 1.073-1.5 0.6642-1.5-2.9609zm-10-25.629c0-0.98228 4.4128-4.3414 5.75-4.377 1.816-0.0483 1.535 3.6434-0.3318 4.3597-2.0214 0.77569-5.4182 0.78653-5.4182 0.0173zm-558.33 56.923c-0.3667-0.36666-0.6667-2.8417-0.6667-5.5 0-5.4467 0.035-5.4198-4.1816-3.2394l-3.0824 1.5939 0.6948-2.8439c0.3821-1.5642 0.9402-3.8564 1.2404-5.0939 0.7847-3.2357-1.2046-2.8038-4.6027 0.99931-1.5967 1.7871-3.2479 2.9046-3.6692 2.4833-0.4213-0.42128-0.2335-1.2985 0.4174-1.9493 1.747-1.7471 1.443-2.7833-0.8167-2.7833-2.7389 0-2.5622-0.4504 1.75-4.4595 4.2748-3.9743 5.7615-4.3218 7.1766-1.6777 0.9938 1.8569 4.2606 3.4748 9.1499 4.5314 2.2134 0.47832 2.8255 0.0344 4.3442-3.1502 1.5956-3.346 1.8909-3.5384 3.0337-1.9755 0.6964 0.95229 1.7308 1.7314 2.2989 1.7314 1.5071 0 2.2566 2.5901 1.0877 3.759-0.6704 0.67033-0.3129 2.4305 1.0781 5.3097 2.4262 5.0217 2.62 6.9313 0.7033 6.9313-1.9429 0-3.9232-2.6629-3.1278-4.2062 0.3667-0.71159-0.473-0.0563-1.866 1.4562-1.3929 1.5125-3.3643 2.75-4.3806 2.75-2.3473 0-4.248 1.8793-4.248 4.2 0 1.8193-1.1088 2.3578-2.3333 1.1333zm-225.66-18.26c-1.9723-3.6853 1.2782-12.04 4.6918-12.059 0.67482-0.004 1.9844-1.2443 2.9101-2.7568 0.92576-1.5125 2.8486-4.5111 4.2731-6.6635 3.2238-4.8714 3.7306-17.676 0.93367-23.587-0.9109-1.925-1.913-4.662-2.2269-6.0822-0.33657-1.5227-2.8233-4.3796-6.0607-6.9629-10.118-8.0741-10.66-15.898-1.7431-25.205 4.6304-4.833 8.2112-5.0059 12.331-0.59552 3.378 3.6162 4.3646 3.1026 5.3176-2.7682 1.4221-8.7606-12.442-14.443-26.201-10.738-7.863 2.1169-44.725 2.7536-46.047 0.79539-0.39239-0.58123-2.1759-1.6483-3.9634-2.3713s-3.25-1.71-3.25-2.1932c-0.01-0.48-0.69-0.88-1.51-0.88-0.825 0-1.5-0.4133-1.5-0.91844s-1.575-1.8918-3.5-3.0816c-1.925-1.1897-3.5-2.5764-3.5-3.0816 0-1.56 2.8279-1.0146 4.711 0.90852 9.0511 9.2434 31.083 13.728 50.289 10.236 18.991-3.4529 18.545-3.4445 26.975-0.50992 10.982 3.8231 10.829 3.4093 8.3798 22.632-1.4537 11.408 10.753 23.087 27.666 26.47l3.0887 0.61775-2.1896-4.2009c-1.2043-2.3105-3.77-5.4092-5.7016-6.886-7.7239-5.9053-10.961-9.2964-11.852-12.416-0.68001-2.3814-1.6035-3.3646-3.4002-3.6202-3.439-0.48911-3.9562-1.7246-3.8296-9.1492 0.26617-15.614-14.654-21.391-41.664-16.132-17.447 3.3973-34.045 0.25315-44.324-8.3963-5.7112-4.8057-3.6154-6.2134 2.2778-1.5301 2.036 1.618 5.8104 3.6829 8.3875 4.5887 2.5771 0.90573 5.467 2.0569 6.4221 2.5581 2.8641 1.5032 23.857 1.09 29.355-0.57784 20.262-6.1467 43.5 3.2363 43.084 17.397-0.21017 7.1674 0.54792 8.1102 7.3912 9.192 5.2079 0.82326 8.9333 3.1102 8.9333 5.4839 0 6.2583 13.286 4.9106 22.863-2.3192 3.039-2.2942 3.3131-2.9129 2.843-6.4179-0.28615-2.1334-0.13983-5.1091 0.32516-6.6127s1.4242-4.7588 2.1315-7.2338c5.0426-17.644 27.689-15.568 27.822 2.5514 0.008 1.1282 2.0422 3.9833 4.5198 6.3446 5.1185 4.8782 6.4582 8.284 4.1618 10.58-2.1888 2.1888-2.9328 5.1575-1.8158 7.2447 4.8254 9.0163-0.42973 22.052-9.2106 22.848-1.0229 0.0927-2.2212 0.75327-2.6629 1.4679-0.95338 1.5426-9.2119 3.1435-17.177 3.3298-7.3691 0.17236-9.3062 1.8694-4.9541 4.3399 1.7376 0.98636 3.3917 2.5126 3.6758 3.3916 0.28415 0.87904 1.6147 2.0985 2.9567 2.71 5.9878 2.7282 10.043 20.312 5.4298 23.543-2.9224 2.047-7.1158 2.1094-10.881 0.16213-2.8319-1.4644-2.8838-1.4411-3.5502 1.5927-1.3371 6.0879-10.022 7.6616-14.693 2.6621l-3.0185-3.2313-3.1428 3.7435c-3.794 4.5191-7.0383 3.3508-8.2224-2.9608-1.4063-7.4962-15.786-20.395-16.93-15.186-2.8663 13.05-21.362 27.544-25.435 19.932zm12.168-5.0768c7.8718-5.214 12.17-14.289 10.653-22.489-1.8222-9.8446-0.51089-11.027 3.6054-3.25 4.4624 8.4305 15.672 18.046 18.149 15.568 3.1-3.11 2.63-18.82-0.57-18.82-3.0048 0-16.175-8.7127-17.749-11.741-0.98838-1.9026-2.5427-4.8767-3.4541-6.609-0.9114-1.7324-2.3915-6.0747-3.2892-9.6497-4.4781-17.835-6.4089-21.006-11.944-19.617-7.0945 1.7806-8.1911 12.389-1.942 18.789 4.7308 4.8447 5.3285 4.7976 5.3473-0.42204 0.0391-10.84 2.5846-7.5691 2.8695 3.6877 0.0992 3.919 1.2583 10.663 2.6637 15.5 2.7621 9.5053 2.6029 15.669-0.51943 20.111-0.98537 1.4019-2.9776 4.8894-4.4272 7.75-1.46 2.86-3.09 5.2-3.63 5.2-1.89 0-4.98 4.03-4.98 6.5 0 3.4974 3.4397 3.3064 9.203-0.51107zm38.09 0.76107c1.4804-0.6875 2.6951-2.0109 2.6994-2.941 0.0139-3.0079 1.828-2.9219 3.6564 0.17334 3.4833 5.8967 10.474 3.6414 7.8895-2.5452l-1.61-3.8532 2.3503 2.208c1.2927 1.2144 3.2214 2.1725 4.2859 2.1291 1.1472-0.0468 1.4057-0.29128 0.63481-0.60024-1.3862-0.55555-6.5888-8.2646-5.985-8.8684 0.19723-0.19723 2.1422 1.2999 4.3222 3.3269 4.5625 4.2424 13.224 7.201 14.624 4.9952 3.7976-5.9839-3.1778-18.323-13.981-24.73-3.674-2.1792-7.6648-5.0278-8.8685-6.3303-1.346-1.4564-4.3809-2.8588-7.883-3.6426-3.1319-0.70089-8.644-2.3442-12.249-3.6518-7.1922-2.6087-8.4458-2.4764-5.6635 0.59794 1.4082 1.556 1.5624 2.3043 0.66053 3.2061-1.9899 1.9899-1.3871 2.5921 4.8826 4.8782 7.3358 2.6748 9.941 6.6389 9.941 15.126 0 5.5027-3.9691 13.527-6.0536 12.239-1.2028-0.74336-1.1882-0.31297 0.17234 5.0903 1.1964 4.7513 1.9638 5.1482 6.1741 3.1928zm39.2-42.43c2.75-0.88623 7.3625-2.7224 10.25-4.0803l5.25-2.4689v-5.4899c0-4.6114-0.25491-5.3921-1.5929-4.8787-3.86 1.48-6.41 1.76-6.41 0.71 0-0.61 0.59-1.11 1.31-1.11 0.71988 0 2.1824-0.70669 3.25-1.5704 2.0611-1.6675 0.14793-1.6233-7.8089 0.18023-4.6572 1.0556-3.0396-1.0375 2.2551-2.918 9.0629-3.2188 11.235-10.294 5.1861-16.89-2.1698-2.3659-4.2803-5.8766-4.69-7.8016-2.2654-10.643-4.302-12.504-11.199-10.231-6.3942 2.1073-10.302 9.5426-10.302 19.6 0 10.85-11.534 19.506-24.606 18.467-5.5115-0.43835-5.7166 1.0096-0.85221 6.018 1.9481 2.0058 4.3106 5.2102 5.25 7.1209 3.4478 7.0128 21.094 9.7283 34.708 5.341zm-492.36 25.07c-3.8254-3.2744-4.3847-3.4733-5.93-2.1089-4.3157 3.8105-27.414 0.46732-36.784-5.3241-4.0751-2.5185-6.0865-9.0725-4.0918-13.333 0.79268-1.693 0.5453-1.8218-2.4746-1.2882-15.57 2.751-31.694-9.9458-33.847-26.653-1.8155-14.086-1.7804-14.225 4.4918-17.765 5.0925-2.874 6.9463-4.9131 4.4667-4.9131-5.6952 0-11.478-15.986-7.1551-19.779 1.9412-1.7027 4.1884-8.9183 4.1884-13.449 0-4.9246 12.015-8.8655 19.393-6.3606 5.3037 1.8006 9.1424 0.0977 11.514-5.1078 2.0959-4.6001 14.841-1.6647 21.29 4.9035 5.6043 5.7077 8.8457 13.911 7.1957 18.21-1.0146 2.6441-2.1047 1.7835-2.746-2.1682-3.1048-19.13-19.68-25.382-28.254-10.657-1.0787 1.8525-1.2796 1.8556-7.7994 0.11829-10.537-2.8078-16.603-0.40399-18.17 7.2014-0.29329 1.4231-1.6418 4.8989-2.9967 7.7239-2.8746 5.9935-2.4849 7.8448 2.8653 13.614 3.497 3.7706 6.0105 4.6878 7.2686 2.6522 5.7808-9.3536 18.334-8.4126 27.402 2.054 5.8837 6.7916 5.9905 7.3769 0.55845 3.0601-10.882-8.6476-15.655-9.2406-23.226-2.8856-2.6369 2.2133-5.6944 4.3945-6.7944 4.8472-1.1 0.45269-3.973 2.2645-6.3845 4.0262l-4.3845 3.2032 0.51217 8.2094c1.5373 24.641 27.949 35.014 44.651 17.537 2.7656-2.8939 5.1061-3.8369 5.1061-2.0572 0 0.49302-1.4625 2.2095-3.25 3.8143-6.2077 5.5734-7.0107 7.0035-7.4943 13.347-0.74498 9.7725 0.3556 10.487 21.483 13.937 6.8164 1.1133 7.4455 1.0542 10.792-1.0137l3.5531-2.196 4.0023 2.7736c2.2012 1.5255 4.2341 3.1487 4.5175 3.6072 2.1262 3.4402 10.26-5.0326 10.419-10.853 0.0122-0.44712 0.90222-1.938 1.9778-3.313 3.696-4.7251 2.2776-11.433-4.3757-20.694-4.9658-6.912-4.9067-6.9831 5.3906-6.4908 8.3936 0.4013 9.284 0.25288 12.92-2.1535 6.6123-4.3758 6.1351-6.9031-4.9397-26.162-1.5814-2.75-4.0487-8.4406-5.4828-12.646-2.493-7.31-3.7648-8.7649-7.7279-8.8406-1.5456-0.0295-7.6053 6.1388-8.7531 8.9099-1.234 2.9792-3.563 4.6438-4.4621 3.1891-0.27194-0.44001 1.2997-4.3579 3.4925-8.7063 7.0294-13.94 8.3186-21.73 4.4379-26.817-1.375-1.8027-2.5-4.5023-2.5-5.999 0-7.9631-5.3796-8.9445-9.7849-1.785-4.2828 6.9605-4.3218 7.2211-4.3545 29.155-0.03 11.46-0.43 20.06-0.95 20.06-0.51 0-0.92-1.1-0.92-2.43 0-1.339-0.67302-5.634-1.4956-9.5444-2.1266-10.109-2.2433-28.814-0.20341-32.598 0.86686-1.6077 2.5265-4.7786 3.688-7.0463 5.44-10.62 18.01-8.69 18.01 2.76 0 1.8015 0.91336 3.6659 2.4508 5.0026 3.9273 3.4147 4.1472 7.2695 1.0037 17.594-0.50959 1.6737-0.21157 2.3898 1.1821 2.8407 5.5862 1.8071 6.8204 3.1767 11.033 12.242 2.3819 5.1263 4.3308 9.9638 4.3308 10.75 0 0.78619 0.45 1.4294 1 1.4294s1 0.68912 1 1.5314c0 3.7795 11.79-0.32267 19.596-6.8179 3.9152-3.2579 7.1744-4.8937 7.7843-3.907 1.2038 1.9478-11.424 10.094-22.88 14.76-1.8119 0.73795-1.7461 0.84946 0.70005 1.1858 3.5465 0.48762 16.193-5.6524 20.887-10.141 1.977-1.8904 4.0918-3.1184 4.7112-2.7356 2.8385 1.7543-12.293 12.277-20.799 14.464-5.2011 1.3372-5.4826 1.9436-3.7424 8.0608 3.2826 11.539-1.518 17.016-16.862 19.237l-4.1043 0.59416 3.201 4.7566c5.3882 8.0068 5.3582 12.38-0.15409 22.441-8.3605 15.258-11.187 16.96-18.202 10.956zm-9.56-24.14c-0.32-0.32-0.58-1.38-0.58-2.36 0-2.7455-1.7634-3.1916-3.6956-0.9349-2.4016 2.8049-3.0346 2.5642-2.5177-0.95745 0.448-3.0524-2.7221-4.5315-4.2867-2-0.33992 0.55-1.5018 1-2.5821 1-1.8269 0-1.8574-0.16272-0.43748-2.3298 1.8477-2.8199 1.0724-3.847-2.2705-3.008l-2.4931 0.62573 1.8916-3.2208c2.8744-4.8944 3.9002-5.4351 6.7579-3.5627 2.9436 1.9287 11.156 1.1817 12.03-1.0943 0.57789-1.506 7.061-1.5127 9.4606-0.01 1.1424 0.71545 1.1424 0.99091 0 1.743-1.1013 0.72512-1.0273 1.0875 0.39324 1.9247 2.3692 1.3963 2.2839 3.8844-0.11166 3.2579-2.1925-0.57334-7.1383 3.6107-7.1383 6.0388 0 1.8634-3.5319 5.7701-4.4167 4.8853zm-31.25-17.236c0-2.1204 0.58731-3.1719 2.0267-3.6288 1.8648-0.59188 1.7254-0.91936-1.7466-4.1012-4.6548-4.2658-4.7733-4.1788 4.6112-3.387 9.6117 0.81094 10.902 1.8544 8.2912 6.7031-3.5366 6.5671-13.182 9.7968-13.182 4.4139zm17.14-8.76c0.37748-1.5125 1.2579-3.425 1.9564-4.25 0.69855-0.825 1.5494-2.2875 1.8907-3.25 1.1137-3.1405 7.2325-2.3218 9.3424 1.25 2.1076 3.5679 3.6136 3.9345 2.797 0.68086-0.50488-2.0116-0.0764-2.4601 3.2309-3.3821 5.7436-1.6011 10.313-1.4941 10.313 0.24149 0 0.80286 0.675 1.4597 1.5 1.4597 2.1842 0 1.8359 1.533-0.73627 3.2409-1.9459 1.292-2.0572 1.7006-0.8575 3.1461 2.3001 2.7715-5.5161 4.4031-8.2062 1.713-1.3743-1.3743-4.039-1.4576-3.2-0.1 1.257 2.0339-2.6767 0.91709-5.2834-1.5-3.6139-3.351-6.3781-3.1895-8.5575 0.5-2.3294 3.9433-5.1534 4.1118-4.1896 0.25zm111.1-4.1343c-1.1561-1.8706-0.64153-14.832 1.0029-25.26 0.48709-3.089-0.97142-3.9702-7.344-4.4368-6.716-0.49176-11.861-4.645-17.831-14.395-2.8455-4.6468-5.6744-8.6156-6.2865-8.8196-0.61-0.21-1.11-1.65-1.11-3.21 0-1.5583-0.47562-2.9919-1.0569-3.1856-0.72182-0.2406-0.75552-1.6938-0.1063-4.5833 0.87762-3.906-0.86537-6.6452-2.0215-3.1768-2.6239 7.8718-21.41 0.82271-26.217-9.8373-1.3-2.87-2.53-4.22-3.86-4.22-1.327 0-1.7702-0.48187-1.3795-1.5 0.31658-0.825 0.17805-1.5-0.30785-1.5-0.48589 0-2.6093-2.3578-4.7186-5.2395s-4.5902-5.9993-5.5131-6.9279c-3-3.02-3.66-19.83-0.78-19.83 0.50512 0 1.8894-1.9125 3.0762-4.25s2.9959-5.3232 4.0203-6.6349c2.778-3.557 2.4819-10.226-0.61758-13.909-10.11-12.02-4.97-30.21 8.52-30.21 4.6007 0 8.3342-4.0803 11.06-12.088l2.3134-6.7952 6.0431-2.0759c3.3237-1.1417 8.4055-3.2482 11.293-4.6811 5.9022-2.9289 4.7084-3.3326 14.386 4.8655 3.0997 2.6259 6.32 4.7743 7.1564 4.7743 0.95427 0 1.3517 0.65176 1.0671 1.75-0.24941 0.9625 0.69272 3.2999 2.0936 5.1943s2.5471 4.2568 2.5471 5.25c0 6.3118 2.777 0.37372 4.887-10.45 3.27-16.81 7.86-24.74 14.31-24.74 3.1366 0 14.742 6.6966 14.779 8.5278 0.0114 0.56527 0.80826 1.7366 1.7708 2.603 0.9625 0.86636 2.5358 2.8789 3.4962 4.4722 0.9604 1.5934 3.0965 4.922 4.747 7.397 7.7181 11.574 7.7992 16.437 0.47537 28.5-1.3357 2.2-2.7121 4.5662-3.0586 5.2581-0.7306 1.4588 1.6339 6.8381 4.2821 9.7419 3.1657 3.4713 5.105 7.0311 7.14 13.106 5.4439 16.252 7.3918 18.482 12.48 14.288 4.3682-3.6006 4.5937-5.6636 1.0762-9.8439-5.3001-6.2988-4.913-10.378 1.6652-17.55 2.2756-2.481 2.8507-4.2109 3.3242-10 0.73847-9.0284 1.951-15.442 3.4376-18.184 1.6111-2.9714 1.5143-3.3157-0.93211-3.3157-2.4784 0-15.827-13.19-15.99-15.799-0.42313-6.7907 1.3681-12.166 5.4248-16.28 3.2793-3.3256 4.3062-5.5988 5.1488-11.398 0.96-6.65 5.39-17.52 7.14-17.52 0.76 0 1.39-0.65 1.39-1.44 0-0.88988 1.2369-1.5559 3.25-1.75 1.9456-0.18759 3.1497-0.81506 3-1.5634-0.33114-1.6557 7.0939-1.6767 9.7347-0.0275 1.6397 1.024 2.8589 0.78044 7.5086-1.5 8.0177-3.9323 12.603-3.6898 17.062 0.9023 3.6444 3.7527 9.4445 11.702 9.4445 12.944 0 0.3894 1.7288 2.5835 3.8417 4.8758s4.3349 5.0426 4.9377 6.1118c1.922 3.4091 3.1 0.36351 3.3095-8.5559 0.29258-12.457 0.36419-12.632 8.8991-21.738 3.6799-3.926 10.5-6.5371 11.908-4.5589 2.803 3.9381 9.5603 7.5279 15.119 8.032 3.2915 0.29847 5.9846 0.89984 5.9846 1.3364 0 0.43655 1.0125 1.1136 2.25 1.5046 2.7412 0.86602 5.1116 4.0581 5.5131 7.4239 0.51439 4.3122 0.87752 4.6078 7.8883 6.4213 3.7667 0.97432 7.613 1.9761 8.5472 2.2262 1.741 0.46602 2.5431 25.082 0.85869 26.353-8.5289 6.4316-6.2357 24.311 3.6241 28.256 4.8215 1.9292 5.6626 2.9668 7.2945 8.9982l1.2863 4.7541-4.2022 6.2459c-3.391 5.0402-4.0884 6.825-3.613 9.2459 2.0746 10.564 1.9328 11.632-2.6076 19.632-3.3642 5.9277-5.2456 8.1171-8.4237 9.8031-3.7325 1.9801-4.1065 2.5395-4.2565 6.3675-0.4312 11.005-6.0376 18.201-15.13 19.42-3.5088 0.47064-4.325 1.0497-5.5241 3.9194-0.79078 1.8926-2.9612 4.2843-4.9559 5.4612-1.952 1.1517-3.549 2.4482-3.549 2.8812 0 4.2878-13.493 4.9469-21 1.0259-12.115-6.3279-11.84-6.2487-17.206-4.9614-15.837 3.7994-23.897-3.792-15.811-14.892 3.8963-5.3486 3.7075-5.5516-3.8832-4.1752-8.9277 1.6189-12.535 0.6061-18.106-5.0842-3.446-3.5192-5.91-5.0933-9.0924-5.8084-2.401-0.53946-4.5236-1.4552-4.7168-2.035-0.58212-1.7464-3.8616-1.1906-6.4196 1.0878l-2.4048 2.142 1.8959 3.608c4.9149 9.3534 0.21064 20.566-9.7563 23.254-4.4261 1.1937-9.5 2.9702-9.5 3.3264 0 1.6876 2.4837 6.4995 3.5699 6.9163 1.605 0.6159 1.9879 5.6116 0.43012 5.6116-0.55 0-1 0.58672-1 1.3038 0 0.71711-1.6047 2.8546-3.566 4.75s-4.4421 4.8587-5.513 6.5852c-2.9144 4.6987-12.094 8.9464-15.914 7.3641-3.7131-1.538-4.4811-0.98409-6.5954 4.7572-0.96001 2.6068-2.5746 5.673-3.5879 6.8138s-1.5138 2.4028-1.1122 2.8044c0.40161 0.4016 0.17248 1.0749-0.50917 1.4962-0.68165 0.42129-1.7039 3.6593-2.2717 7.1956s-1.4596 7.211-1.9817 8.1661c-0.52213 0.95504-0.94932 2.4175-0.94932 3.25 0 0.83246-0.49418 1.5136-1.0982 1.5136-1.4883 0-0.18143-11.46 1.7904-15.7 1.4293-3.0736 1.1463-5.3003-0.67363-5.3003-1.9211 0-4.1964 11.419-4.4211 22.188-0.13805 6.615-0.80652 8.901-2.0259 6.928zm2.7541-36.105c4.6831-0.0135 7.4047-2.719 9.7191-9.6618 1.5604-4.6808 1.7699-4.8665 6.0359-5.3492 3.509-0.397 4.3589-0.86049 4.1256-2.25-0.39047-2.3256 1.0614-2.2168 3.2906 0.24647 1.3785 1.5232 2.1264 1.7312 3.155 0.87755 1.0007-0.83051 1.7316-0.80077 2.8355 0.11541 2.5478 2.1145 4.2696 0.41366 5.0067-4.9456 0.62504-4.5446 1.0576-5.2474 3.9815-6.4691 6.4769-2.7062 5.3787-7.9054-3.2727-15.494-6.0358-5.2944-6.5634-7.105-1.3061-4.4823 6.6194 3.3022 19.081 1.1271 22.638-3.9512 4.2539-6.0733-0.83321-18.353-8.2888-20.008-7.79-1.74-12.24-9.04-12.24-20.09 0-17.964-13.198-33.175-19.862-22.892-2.443 3.7694-2.4367 3.5812-0.51979 15.565 0.44234 2.7655 0.0825 4.5484-1.3862 6.868l-1.9836 3.133-0.72525-6.868c-2.28-21.57 3.36-31.39 13.98-24.36 3.9482 2.6148 3.614 2.7646 7.2633-3.2567 3.9418-6.5039 6.0875-13.399 5.4729-17.587-0.65012-4.4296-1.9855-4.8341-3.1082-0.94164l-0.94764 3.2856-0.0902-3.625c-0.25-10.05-9.09-22.09-9.09-12.37 0 1.3101-0.45 2.6601-1 3-0.59896 0.37018-1.0061-0.90954-1.0153-3.191-0.0203-5.0496-1.4806-7.4536-2.3715-3.904-0.78497 3.1276-2.6132 3.4502-2.6132 0.46104 0-19.01-12.356-12.503-16.396 8.634-0.94594 4.95-2.3672 10.303-3.1583 11.896-0.79111 1.5927-1.9377 5.8677-2.548 9.5-0.61029 3.6323-2.187 8.5733-3.5039 10.98-2.9091 5.3169-2.9489 6.6428-0.39425 13.124 2.0952 5.3155 2.7155 14 1 14-0.55 0-1-1.3232-1-2.9404s-1.125-6.0592-2.5-9.871c-3.1145-8.6341-3.118-11.395-0.0221-17.689 5.0713-10.309 2.7393-16.682-12.069-32.98-6.25-6.88-11.41-5.62-11.41 2.78v5.0519l-2.3144-2.1743c-3.4-3.19-12.69-2.9-12.69 0.4 0 0.75047-1.1584 3.9648-2.5742 7.143-1.751 3.9305-2.4107 6.8179-2.0629 9.0285 0.54277 3.4496-0.12959 4.0383-2.2842 2-1.0878-1.0291-1.2013-0.57557-0.64229 2.5661 0.80657 4.533-0.91413 4.1499-5.7488-1.2801-3.7028-4.1588-6.4592-3.7292-9.3941 1.464-4.9059 8.6808-0.5481 22.638 5.8254 18.658 5.4868-3.4265 28.399 7.2348 35.558 16.546 6.8701 8.9349 6.6652 9.7695-0.74115 3.0184-4.732-4.3133-10.164-8.081-14.936-10.361-4.125-1.9704-8.6944-4.2077-10.154-4.9718-5.3984-2.8254-9.8457-0.49274-9.8457 5.1642 0 3.2692-3.4903 10.761-8.2506 17.71-6.3706 9.2993-3.9098 17.937 6.1856 21.712 5.7643 2.1557 7.1601 4.0243 3.006 4.0243-1.0675 0-1.941 0.39375-1.941 0.875 0 0.94877 4.7907 2.125 8.6549 2.125h2.4049l-2.1955 2.9696c-2.1765 2.9439-2.1796 3.0049-0.35298 7.0556 5.9029 13.09 24.169 8.9336 35.266-8.0252 1.9793-3.025 3.7392-5.6875 3.9109-5.9167 0.17166-0.22916 0.58339-0.14539 0.91494 0.18616 0.84148 0.84148-4.313 11.465-7.623 15.712-4.4886 5.7584-4.2708 16.336 0.51403 24.96 0.78077 1.4073 2.2848 4.3587 3.3424 6.5587 3.4842 7.2482 7.7496 9.7568 15.164 8.918 1.925-0.21778 5.2216-0.40091 7.3257-0.40696zm-6.94-44.02c-0.62701-3.9211-1.6543-4.9897-2.884-3-2.6842 4.3432-3.2708-2.377-0.8074-9.25 1.9026-5.3084 2.5453-5.6762 4.6553-2.6637 1.1289 1.6118 1.881 1.8664 3.3067 1.1197 1.015-0.53159 3.3079-0.74433 5.0954-0.47276 2.5987 0.39481 3.25 0.14896 3.25-1.2267 0-1.0828 0.53118-1.5166 1.4331-1.1706 0.97637 0.37466 1.6391-0.38796 2.0794-2.393 0.83426-3.7983 2.6823-3.723 7.5367 0.30707 4.4472 3.692 4.7157 4.3724 2.0587 5.2157-1.0406 0.33028-2.139 1.545-2.4409 2.6995-0.40151 1.5354-1.1018 1.9544-2.608 1.5605-2.9367-0.76797-2.5793 1.1874 1.0137 5.5465 3.3528 4.0676 2.687 4.8999-1.368 1.7102-1.5712-1.2359-2.8086-1.6233-3.1939-1-0.95589 1.5467-4.498 1.2148-5.1492-0.4824-0.61-1.6-3.36-2.1-3.36-0.62 0 0.48585-0.9096 1.1212-2.0213 1.412-1.1117 0.29072-2.5058 1.9182-3.0978 3.6166-1.4666 4.2069-2.731 3.8772-3.4968-0.91196zm-23.38-17.5c0-0.825 0.7125-1.5 1.5833-1.5 3.0122 0 0.79694-2.3146-3.4018-3.5543-7.7938-2.3012-8.0265-2.5134-4.1816-3.8134 2.4099-0.81481 3.4516-1.7514 3.3446-3.0072-0.13721-1.6098 0.3778-1.7439 4.3885-1.1424 4.0178 0.60252 4.4683 0.48429 3.8906-1.0212-0.53619-1.3973-0.24724-1.5768 1.6115-1.0013 1.2457 0.38568 3.2774 0.94238 4.5149 1.2371 2.3146 0.55123 3.0232 2.7068 1.25 3.8027-1.7203 1.0632-1.0995 2.5117 1.5 3.5 3.2631 1.2406 3.1531 2.2726-0.57673 5.4111-3.66 3.09-13.92 3.89-13.92 1.09zm24.444-8.25c1.2454-10.615 2.781-11.708 8.3596-5.9524 3.9594 4.085 4.0264 5.1184 0.28339 4.3698-3.2584-0.65168-4.5688 0.41904-5.6152 4.5882-1.4101 5.6182-3.7653 3.2802-3.0278-3.0056zm21.189 0.25067c-5.8303-5.6922-6.8908-8.1778-3.8827-9.0998 0.9625-0.29502 3.6424-1.3903 5.9553-2.4339 3.3647-1.5182 4.0929-1.6046 3.643-0.43221-0.42984 1.1201 0.28732 1.4653 3.0447 1.4653 4.3062 0 4.343 0.16846 0.99609 4.5565-1.6151 2.1175-2.365 4.0639-1.9661 5.1033 0.35463 0.92414 0.096 2.0194-0.57479 2.434-0.94996 0.58712-0.93038 1.1022 0.0886 2.33 3.4104 4.1093-2.1185 1.1396-7.304-3.9231zm139.1 29.41c7.0678-2.032 8.9839-6.8129 6.77-16.893-0.68534-3.1203 0.7968-4.2824 1.8758-1.4708 0.32648 0.8508 1.1621 1.4314 1.857 1.2902 0.69486-0.1412 2.3422 0.33904 3.6608 1.0672 7.4738 4.1271 17.139-7.2051 14.071-16.499-0.66117-2.0034-3.1616-5.0089-6.2835-7.5529-2.8519-2.324-5.6353-4.6496-6.1853-5.1681-1.7263-1.6274 4.6808 0.26343 9.7316 2.8719 6.8283 3.5265 11.036 3.271 14.188-0.86142 8.7086-11.418 8.3695-23.246-0.72023-25.128-3.4043-0.70476-1.6503-3.52 2.2422-3.5989 1.8836-0.0382 6.4101-3.8877 7.9461-6.7577 4.36-8.1467-7.4428-16.801-17.298-12.684-4.1311 1.7261-4.5896 1.7811-4.5896 0.55054 0-0.50734 1.5687-1.4402 3.4861-2.073 1.9173-0.63278 3.7912-1.6442 4.164-2.2475 0.43243-0.6997 0.0869-0.87018-0.95405-0.47072-2.6884 1.0316-2.8228-0.88062-0.16194-2.3047 8.4829-4.5399-5.7358-23.782-16.794-22.727-6.3204 0.60262-8.3435 2.6845-10.84 11.155-3.4983 11.87-5.5798 17.67-6.7675 18.858-1.7344 1.7344-1.4385-1.0649 0.80062-7.5729 1.0632-3.0901 2.2286-7.5896 2.5899-9.999 2.05-13.63 13.52-20.32 23.48-13.7 8.1555 5.4215 15-0.2748 15-12.484 0-10.85-8.0629-15.533-11.874-6.8963-2.6517 6.0104-4.7371 7.2189-3.6753 2.1299 1.5063-7.2194 1.7858-12.014 0.65975-11.318-0.61 0.38-1.11 1.99-1.11 3.58 0 2.95-1.84 7.99-2.91 7.99-0.32615 0-0.59142-3.9564-0.58948-8.7919 0.005-11.338-1.3519-13.725-8.3457-14.687-3.2604-0.44843-6.9206-1.9988-10.792-4.5714-8.9905-5.9739-13.051-5.0781-20.128 4.4402-2.0374 2.7402-2.2455 4.0288-2.0316 12.582 0.18508 7.3999-0.20145 10.758-1.7301 15.029-2.9474 8.2354-2.7818 25.744 0.3034 32.066 2.29 4.7 2.99 10.93 1.22 10.93-0.55 0-1-1.3127-1-2.9171s-0.82702-4.8669-1.8378-7.25c-2.6552-6.2601-4.362-16.161-4.0932-23.745 0.28985-8.1782-0.89371-11.152-7.0146-17.624-2.6584-2.8108-5.8356-7.1026-7.0604-9.5373-4.1229-8.1953-8.3598-11.228-14.332-10.259-3.0942 0.50212-3.4627 0.83729-2.6303 2.3925 1.7058 3.1873 1.2418 5.157-0.93985 3.9894-1.7723-0.9485-1.8288-0.81167-0.79517 1.9266 1.5269 4.0452-0.0163 5.1294-2.4824 1.7442-5.4136-7.4316-21.328-7.7606-23.279-0.48114-4.4968 16.781-5.6848 19.995-8.2812 22.401-11.921 11.048 0.86846 34.533 14.089 25.871 6.1198-4.0098 18.38-3.9684 23.961 0.081 1.7574 1.2751 5.9412 4.0116 9.2974 6.0811 3.8644 2.3829 6.5861 4.8748 7.4218 6.7951 2.8385 6.5228 6.2498 10.719 11.179 13.752 2.8287 1.7405 4.616 3.3402 3.9718 3.555-3.0716 1.0238-15.073-8.8131-18.243-14.952-1.0442-2.0225-2.8026-3.9642-3.9077-4.315-1.105-0.35072-4.1501-2.3042-6.7668-4.341-5.79-4.51-9.39-6.17-13.36-6.17-4.21 0-11.9 2.05-11.9 3.17 0 0.51275-1.628 2.4238-3.6179 4.2467-3.5465 3.249-3.6282 3.4946-4.1387 12.449l-0.52 9.13h2.5797c1.4188 0 2.8578 0.45 3.1977 1 0.33992 0.55-0.28197 1-1.382 1s-2.2781 0.45-2.618 1c-0.38091 0.61633 1.323 1 4.441 1 2.7825 0 5.059 0.39375 5.059 0.875 0 1.0346-4.8993 2.125-9.5483 2.125-9.4355 0-15.166 15.486-6.9041 18.657 0.85283 0.32726 2.868 3.2047 4.4781 6.3944 3.3897 6.7149 5.0436 7.5414 10.933 5.4634 5.4215-1.9128 6.6146-1.9105 5.021 0.01-1.8356 2.2117-0.97521 2.4675 3.3198 0.98705 4.1792-1.4405 4.898 0.16342 0.88555 1.9759-4.9959 2.2567-0.17601 9.5416 7.2325 10.931 7.5647 1.4192 14.688-2.5268 20.312-11.252 8.007-12.422 0.0733 9.0762-8.8937 24.099l-2.2481 3.7663 2.0077 2.0077c1.8759 1.8759 2.4636 1.9297 8.9559 0.81952 11.117-1.9011 15.934-1.689 18.624 0.81972 2.6123 2.4369 12.525 6.3065 14.825 5.7869 0.825-0.18643 3.4052-0.88671 5.7339-1.5562zm-5.37-25.26c-1.0252-1.3498-2.682-3.9382-3.6818-5.7519-2.0542-3.7266-3.6392-2.6744-3.6668 2.4341-0.0168 3.1042-2.2651 3.2915-2.8571 0.23806-0.34-1.78-3.15-5.57-4.13-5.57-0.29351 0-1.1312 1.35-1.8616 3-1.4921 3.371-2.5989 3.7043-4.8444 1.4588-1.3883-1.3883-1.7746-1.3883-3.8934 0-4.2947 2.814-4.8942 0.0788-0.99765-4.5519 1.3337-1.585 3.6962-5.5467 5.25-8.8038 3.1127-6.5249 6.2162-8.4167 9.2714-5.6517 1.93 1.74 5.06 2.08 5.06 0.55 0-0.55 1.3234-1 2.941-1 1.6175 0 3.2198-0.45122 3.5607-1.0027 0.4045-0.6545 1.2475-0.66672 2.4275-0.0352 2.3578 1.2618 3.2661 0.27134 1.9708-2.149-1.62-3.027-0.53614-4.4063 1.6556-2.107 1.0694 1.1218 3.3784 2.7687 5.131 3.6597 3.7385 1.9006 5.0156 3.5822 3.4535 4.5476-1.1218 0.69331-0.31687 4.3288 2.1776 9.8351 1.6188 3.5733 0.16721 3.6812-4.6776 0.3479-4.9608-3.4131-6.6401-3.8318-6.6401-1.6554 0 4.0619-6.8451-0.0575-6.964-4.191-0.03-1.06-2.04-1.93-2.04-0.88 0 0.20216 1.3718 4.5303 3.0485 9.6182 3.2433 9.8419 3.3164 11.616 0.31551 7.6654zm-33.36-21.63c0-1.8969-1.045-2.4184-6.5-3.2438-3.3641-0.50904-2.2313-2.2194 2.174-3.2825 5.4251-1.3092 6.1922-2.1977 3.5157-4.0724-2.8535-1.9987-2.7701-3.2365 0.26931-3.9994 3.7501-0.94123 5.4128-3.3802 2.7746-4.0701-1.1524-0.30136-2.3581-1.2328-2.6793-2.0699-0.45616-1.1888-0.0882-1.3747 1.6808-0.84934 1.2457 0.36995 3.934 0.93097 5.9741 1.2467 5.0259 0.77787 7.6709 3.6828 5.9143 6.4955-0.84622 1.355-0.94969 2.4-0.30179 3.0479 1.0514 1.0514 3.0766-2.5604 5.3966-9.6242 2.3471-7.1462 6.7422-7.4259 9.6045-0.61119 1.9692 4.6884 4.0263 5.3456 3.4012 1.0866-0.4175-2.8446-0.23348-2.9854 6.531-5 9.2818-2.7642 10.927-2.2033 5.995 2.0444l-2.25 1.9379 3.5-0.12891c5.26-0.19375 5.4532-0.0846 3.557 2.0107-2.5534 2.8215-1.5899 3.7304 6.9149 6.5231 2.7822 0.91359 0.1223 2.5042-4.222 2.5246-3.4308 0.0162-4.0284 0.83689-2.05 2.8153 2.2926 2.2926-0.9715 1.2878-7.5336-2.3192-3.7878-2.082-7.0741-3.2615-8.0472-2.8881-0.90458 0.34712-2.314 0.0757-3.1319-0.6032-1.2377-1.0272-1.4873-0.87457-1.4873 0.90956 0 2.8585-4.2933 4.9324-6.4704 3.1256-2.0002-1.66-2.0226-4.4277-0.0296-3.663 1.1257 0.43198 1.5-0.16509 1.5-2.393 0-4.4386-2.1317-3.6224-5.3077 2.0324-1.76 3.15-3.48 5-4.63 5-1.003 0-3.0253 1.5755-4.494 3.501-2.28 2.98-7.16 6.5-9.02 6.5-0.3 0-0.55-0.89-0.55-1.98zm-54.433 11.362c3.4229-2.6108 4.5558-5.3951 2.1833-5.366-1.7381 0.0213-3.0864 1.0762-5.058 3.9572-3.1929 4.6656-2.0985 5.202 2.8747 1.4088zm-14.56-2.63c-0.73674-3.0536-2.0609-6.4333-5.7789-14.75l-1.5647-3.5-0.70188 5c-0.83328 5.9361 0.78483 10.266 5.2364 14.012 3.7343 3.1422 3.7499 3.138 2.8091-0.76162zm1208.1 65.101c-1.9152-5.4941-1.3071-17.64 1.2443-24.851 2.1872-6.1815 3.2969-8.1543 10.054-17.874 3.6716-5.2814 2.8716-6.1778-1.8295-2.0501-7.4166 6.5119-11.524 17.752-11.552 31.615-0.017 8.1047-1.2758 10.078-3.0331 4.7536-1.212-3.6724-0.9672-7.9418 0.857-14.945 0.5731-2.2 1.2677-5.9032 1.5435-8.2294 0.2759-2.3262 1.3927-5.186 2.4819-6.355 1.0892-1.1691 2.5199-3.4283 3.1794-5.0205s1.5097-2.895 1.8893-2.895c0.3795 0 1.7105-0.95071 2.9578-2.1127l2.2677-2.1127-2.5155-2.6373c-3.2486-3.4059-4.6428-7.1989-4.6428-12.631 0-7.0575-3.4814-9.2753-8.4389-5.3758-10.357 8.1466-22.886-9.716-19.054-27.164 1.4848-6.7603 12.106-9.3184 22.94-5.525 7.2524 2.5393 10.668 2.3478 6.4857-0.36359-17.449-11.313-21.545-34.619-7.5373-42.884 1.8681-1.1022 4.6818-4.3342 6.4235-7.3783 6.9729-12.187 24.31-13.083 35.18-1.8165 5.8889 6.1031 12.055 7.3962 15.953 3.3456 3.2287-3.3547 6.4004-4.4728 11.971-4.2201 2.5909 0.11752 7.4508-0.74975 11.204-1.9994 13.025-4.337 19.513 1.8438 18.575 17.696-0.4795 8.1099-0.294 9.7573 1.4275 12.675l1.9787 3.3536-3.0272 6.4748c-1.665 3.5611-4.6145 8.1578-6.5545 10.215-1.9401 2.057-3.5274 3.8443-3.5274 3.9717s3.5758 0.43864 7.9462 0.69164c15.814 0.91545 25.96 14.666 18.155 24.606-1.5943 2.0302-3.2254 4.7853-3.6249 6.1223-2.6681 8.9316-11.649 16.212-20.764 16.832-3.9671 0.27005-7.8119 0.96916-8.544 1.5536-3.4908 2.7866-16.344-0.31377-19.318-4.6599-1.1375-1.6623-3.5453 0.072-4.1745 3.007-3.3311 15.539-21.622 23.622-33.36 14.744-1.7508-1.3243-3.5941-2.4078-4.0963-2.4078-2.3572 0-7.2649 3.3853-9.1099 6.284-1.1259 1.7688-2.7375 4.1477-3.5815 5.2865-3.0346 4.0945-5.7947 18.146-5.3243 27.107 0.4899 9.3348 0.4344 9.5944-1.1069 5.1732zm41.687-43.585c12.119-7.74 16.2-17.587 10.669-25.739-4.2194-6.2177-2.3082-6.0212 5.0691 0.52127 11.128 9.8683 13.062 10.562 22.34 8.0125 2.3995-0.65941 6.0783-0.90907 8.1752-0.5548 6.7816 1.1458 16.962-7.3926 16.962-14.226 0-2.1439 0.6607-4.7716 1.4682-5.8392 5.1841-6.854-2.1255-18.968-11.33-18.776-3.627 0.0757-20.592 0.0462-29.139-0.0506-2.475-0.0281-5.7375 0.3209-7.25 0.77543-3.9754 1.1947-3.4272-0.69702 0.7839-2.7052 2.5325-1.2076 6.18-1.6852 12.871-1.6852h9.3375l4.0506-3.75c2.9172-2.7006 4.6322-5.5 6.1286-10.004 2.855-8.5926 2.7673-9.3339-1.0156-8.5773l-3.0937 0.61873 2.1806-4.2744c7.8471-15.381-0.6156-31.835-12.287-23.888-3.8141 2.5968-4.7413 2.8059-9.9415 2.2422-10.375-1.1248-13.76 1.6098-10.58 8.5466 1.5816 3.4501 2.0156 6.8079 2.1899 16.945l0.2175 12.642-4.8265 7.25c-2.6546 3.9875-5.2363 7.25-5.7371 7.25-2.2616 0-1.7119-2.2822 2.161-8.9716 4.5334-7.8303 4.5995-8.2945 3.3296-23.386-1.1-12.64-3.2-15.63-10.6-15.63-4.2373 0-5.1227-0.38258-7.1611-3.0944-6.1879-8.2318-7.2311-8.9056-13.789-8.9056-7.6346 0-12.97 2.5439-16.998 8.1051-1.6139 2.228-5.0403 5.9045-7.6141 8.17l-4.6796 4.1192 0.4938 8.6609c0.7008 12.29 7.5403 22.388 18.514 27.334 8.0916 3.6471-2.726 5.1198-15.494 2.1094-12.433-2.9314-16.81 0.29701-16.533 12.196 0.2638 11.344 6.8319 18.766 11.774 13.305 5.7826-6.3897 13.65-0.86978 14.906 10.458 0.8048 7.2601 2.2172 8.9685 10.508 12.711 3.5277 1.5922 8.1414 4.4557 10.253 6.3632 4.412 3.986 9.1485 4.5892 13.618 1.7344zm-5.8-22.27c-0.825-0.54008-2.7375-0.72201-4.25-0.40429-3.3484 0.70338-3.5285-0.58552-0.7174-5.134 2.3034-3.727 1.4148-4.948-2.5138-3.4544-4.789 1.8208-6.3383 1.1968-3.2688-1.3164 3.6156-2.9603 3.4695-3.6765-0.75-3.6765-4.7567 0-4.4001-1.3846 0.8757-3.3994 4.5423-1.7347 4.4553-1.747 13.208 1.867 3.7209 1.5364 4.2426 2.2165 5.8715 7.6544 1.7363 5.7964 1.391 9.1417-0.58 5.6196-1.356-2.423-3.6721-2.1774-4.0557 0.43-0.3747 2.5459-1.7231 3.1863-3.8196 1.8138zm20.501-10.14c-2.7646-1.8501-5.8938-5.0208-7-7.0928-2.2082-4.1358-3.7989-4.3808-4.3808-0.67461-0.3496 2.2262-0.4768 2.1422-1.5764-1.0402-1.1584-3.3526-1.3437-3.4528-5.8698-3.1745-5.2066 0.32018-5.5297-0.008-2.7493-2.788 4.1485-4.1485 10.053-4.758 12.788-1.3201 1.0658 1.3396 1.4888 1.3484 3.5 0.0731 1.4776-0.93702 3.9695-1.3049 7.0376-1.039 4.9026 0.42495 6.0531 1.4645 3 2.7107-2.6524 1.0827 1.017 2.3412 7.0833 2.4294 6.1872 0.09 5.7631 1.6977-1.1257 4.2675-5.1272 1.9126-6.2248 3.0561-4.159 4.3328 0.6648 0.41087 0.7041 1.073 0.1076 1.809-0.5176 0.63853-1.1019 1.9916-1.2986 3.0068-0.32 1.6516-0.8835 1.4938-5.357-1.5zm-41.101-13.325c-7.9347-3.82-10.512-8.2662-2.9638-5.1122 3.196 1.3354 3.7224 1.3427 4.2151 0.0586 0.9078-2.3657 12.138 3.8241 12.306 6.7827 0.097 1.7095-8.7623 0.57961-13.558-1.7291zm14.296-8.3047c-2.1898-2.4198-3.7309-10.444-1.6258-8.4662 2.7842 2.6163 3.8289 1.3723 4.1325-4.9206 0.3589-7.4388 2.2693-8.8384 3.2389-2.3727 0.687 4.5811 2.9714 6.2375 4.1972 3.0433 1.4217-3.7049 2.4156-1.0746 1.7947 4.75-0.9371 8.792-7.1649 13.019-11.738 7.9662zm12.336-2.8844c-0.041-2.8061 0.9419-5.3318 2.0752-5.3318 1.3995 0 1.0462 3.4152-0.5752 5.5589-1.4367 1.8994-1.4689 1.8946-1.5-0.22708zm-279 100.73c-1.9436-0.3746-4.0726-1.014-4.7309-1.4209-0.6583-0.40687-6.8228-0.23121-13.699 0.39036l-12.502 1.1301-5.7672-3.4586c-3.172-1.9022-7.376-3.7451-9.3421-4.0954-6.2177-1.1075-11.146-8.1314-11.083-15.796 0.055-6.6808-12.701-7.4152-20.971-1.2072-7.0429 5.287-10.905 7.1245-18.827 8.9576-8.5499 1.9783-21.175 6.1012-27.918 9.1169-4.0903 1.8293-8.6574 2.6359-6.043 1.0672 6.5957-3.9574 19.916-8.9217 32.878-12.253 3.5534-0.91336 7.6034-2.4332 9-3.3774 1.3966-0.94422 3.6642-2.2104 5.0392-2.8136 3.6217-1.589 11-8.2184 11-9.8835 0-2.437-2.4649-1.5694-6.05 2.1295-6.619 6.8291-20.295 12.696-28.749 12.332-2.1087-0.0906-2.2623-0.22654-0.7008-0.62021 1.1-0.27732 2.8876-1.1251 3.9725-1.884 1.0849-0.75889 3.1762-1.3798 4.6474-1.3798 3.3185 0 14.556-5.459 17.753-8.6238 2.356-2.3327 2.3609-2.3833 0.6847-7.1128-4.4012-12.419-4.852-14.56-3.7275-17.705 0.7193-2.0124 0.7825-4.4258 0.1847-7.0581-2.2755-10.02-0.3478-17.279 4.9851-18.771 1.2234-0.34232 1.1693-0.56326-0.2932-1.198-11.131-4.8312-17.349-24.351-10.339-32.455 0.7499-0.86694 1.6541-2.8004 2.0094-4.2965 1.1162-4.701 5.4202-7.7797 10.876-7.7797h4.7738l2.5496-5.574c1.8877-4.1269 3.2979-5.8349 5.4318-6.5788 2.489-0.86769 2.7621-1.3202 2.0025-3.3183-0.8943-2.3521 3.8432-10.529 6.1003-10.529 0.516 0 1.3659-1.125 1.8887-2.5 2.3495-6.1796 23 4.2721 23 11.641 0 0.47257 0.6891 0.85921 1.5314 0.85921 0.8422 0 1.7981 0.69515 2.1242 1.5448 0.326 0.84962 2.7102 3.7766 5.2982 6.5044l4.7055 4.9596 2.2569-6.7544c5.0505-15.115 17.462-19.125 30.191-9.7544 5.8896 4.3357 6.3736 4.5006 13.253 4.5164 5.7986 0.0134 7.8915 0.47598 11.14 2.4625 2.2 1.3453 5.024 2.9062 6.2756 3.4685 3.9658 1.7819 3.7279 10.214-0.5219 18.503-0.8321 1.623-1.581 5.673-1.6644 9-0.1205 4.8078-0.7095 6.8473-2.8705 9.9387-2.9597 4.2342-3.5103 8.051-1.343 9.3108 2.8124 1.6347 6.8831 11.136 6.2395 14.563-1.7502 9.3191-1.7743 10.746-0.2604 15.377 3.7334 11.421 1.5019 20.36-5.0825 20.36-0.7343 0-1.5942 0.675-1.9108 1.5-0.3833 0.99906-1.9592 1.5004-4.7186 1.5011l-4.143 0.001-0.2132 6.4959c-0.2718 8.2802-4.3253 15.319-8.9068 15.466-0.6161 0.0198-1.687 2.061-2.38 4.536s-1.6358 4.5-2.0952 4.5c-0.4593 0-2.3134 1.2893-4.12 2.8651-3.9534 3.4483-6.1555 4.0998-10.819 3.2011zm6.8089-6.0704c5.1935-3.1664 6.1716-12.622 2.0939-20.241-0.7097-1.3261-0.5564-1.7549 0.6274-1.7549 0.8616 0 1.8256 0.675 2.1422 1.5s1.3786 1.5 2.3602 1.5c1.0696 0 2.036 1.0016 2.412 2.5 1.3898 5.5373 7.5894 1.0039 7.5894-5.5497 0-5.8526-2.2707-9.4176-9.2893-14.584-3.4116-2.5115-7.824-6.2087-9.8054-8.2161s-5.0172-4.8323-6.7461-6.2775c-3.4824-2.9109-4.1864-10.436-1.114-11.908 6.5019-3.1156 12.081-2.6318 5.9875 0.51926-4.1555 2.1489-3.8022 3.5169 0.9083 3.5169 3.9283 0 6.0198 1.2882 4.059 2.5-2.0597 1.273 0.2188 2.5 4.6424 2.5 5.3584 0 5.5037 1.743 0.2972 3.5677-2.7789 0.97395-3.1034 1.3439-1.6896 1.9259 2.3996 0.98778 2.1941 2.4002-0.5 3.4356l-2.25 0.86479 2.5 1.0146c1.375 0.55804 4.975 2.1223 8 3.4761 15.526 6.9487 26.331 0.11373 21.528-13.618-2.3964-6.851-2.7002-7.0928-8.5195-6.784-3.0676 0.16282-5.0083-0.1504-5.0083-0.80832 0-0.59078 1.2375-1.0758 2.75-1.0779 6.1301-0.008 12.882-6.63 11.673-11.448-0.7593-3.0252-5.2063-6.4852-6.2581-4.8691-0.9458 1.4532-5.2305 3.5882-5.8858 2.9329-0.3024-0.3024 0.1965-1.6889 1.1087-3.081 1.6735-2.5541 0.958-3.4768-1.1001-1.4187-0.6119 0.61187-1.6621 0.92929-2.3339 0.70536-0.8732-0.29106-0.7469-0.88175 0.4431-2.0717 4.8049-4.8049 7.0247-14.915 3.669-16.711-6.4609-3.4578-13.362 0.0781-19.973 10.233-2.9472 4.5275-6.6574 9.5818-8.2447 11.232-1.5874 1.65-4.1905 4.5747-5.7847 6.4993-5.3151 6.417-4.3881 2.1972 1.1434-5.2047 2.9982-4.012 6.3156-8.8592 7.3721-10.772 8.1708-14.79 17.996-20.083 27.905-15.031 3.0016 1.5303 4.0902 1.7042 4.6962 0.75 1.1453-1.8034 1.0016-5.9727-0.1806-5.2421-1.8557 1.1469-1.0178-1.2281 2.4863-7.0472 6.4424-10.699 5.6033-14.811-3.968-19.444-5.6252-2.7231-6.1124-2.6121-9.0647 2.0647-2.0093 3.1829-2.8639 3.8309-3.9086 2.9638-1.0429-0.86549-1.8422-0.29252-3.6321 2.6035-2.8912 4.6782-3.7042 2.8305-1.0466-2.3789 2.2376-4.3859 1.8327-5.6606-2.1037-6.6239-1.5055-0.36842-3.5243-1.9002-4.4862-3.404-2.7486-4.297-4.4192-5.1735-9.7764-5.1292-13.688 0.11302-19.793 15.001-14.506 35.374 2.4802 9.5567 2.2866 18.096-0.6418 28.308-0.9526 3.3221-1.2671 6.7597-0.8464 9.25 0.6963 4.1213-0.2968 5.1253-2.4745 2.5013-1.4976-1.8045-0.8818-10.274 1.4568-20.038 3.6129-15.084-3.5805-32.883-20.407-50.492-0.8699-0.91035-3.2872-3.5346-5.3719-5.8316-4.2289-4.6597-4.9935-4.8469-10.612-2.5987-5.572 2.2295-6.2664 7.0234-2.5451 17.571 1.7791 5.0424 0.131 5.8772-2.7682 1.4021-2.6741-4.1276-4.1551-4.6564-2.7593-0.98524 1.8917 4.9757 1.1011 6.15-1.8017 2.6759-3.5674-4.2695-5.221-2.718-8.6568 8.1225-0.4469 1.4099-1.1353 1.6888-2.8285 1.1457-19.26-6.1772-23.941 25.043-5.1601 34.422 3.8686 1.9321 4.7691 2.0618 6.3199 0.91072 0.9947-0.73832 3.7422-2.8049 6.1055-4.5924 6.7887-5.1346 14.206-3.1736 19.514 5.1592 2.5283 3.969 7.4798 7.8529 16.225 12.727 4.2177 2.3504 5.3967 3.8649 3.0077 3.8634-4.2627-0.003-14.365-6.4912-20.997-13.486-9.2212-9.7255-12.082-10.109-20.063-2.6871-2.8545 2.6544-6.6738 5.4178-8.4873 6.1408-7.899 3.1497-8.4292 13.225-0.8839 16.798 6.0553 2.8669 6.1274 5.4892 0.1714 6.2355l-3.9903 0.5 0.064 4.7618c0.077 5.7564 2.7063 9.7671 7.4334 11.338 1.8204 0.60502 4.4782 2.4736 5.9064 4.1525 1.5802 1.8577 3.9666 3.3049 6.0966 3.6974 9.7559 1.7977 9.777 1.7962 14.998-1.0455 2.8272-1.5387 9.2622-6.9842 14.3-12.101 8.2566-8.3862 11.702-10.878 11.702-8.4639 0 1.1126 4.6326 3.1946 5.4002 2.427 0.9956-0.99554 0.6887-2.0347-1.1413-3.8646-1.2519-1.2519-1.3923-1.8573-0.5-2.1548 0.6826-0.22753 1.2411-1.7262 1.2411-3.3304 0-3.5844-2.334-3.8909-5.6816-0.74606-3.5351 3.3211-3.8918 1.4462-0.6892-3.623 4.0348-6.3864 6.3429-5.8786 12.571 2.7663l2.0272 2.8139-2.1672 0.56674c-3.1339 0.81953-2.568 6.6623 0.69 7.125 1.2375 0.17575 2.2569-0.0493 2.2653-0.5 0.072-3.8308 2.063-3.3724 6.8931 1.5864 5.8727 6.0294 5.7938 5.8551 2.8416 6.2751-1.8788 0.26734-2.2071 0.86404-1.9898 3.6168 0.2574 3.2604 0.2217 3.2894-3.25 2.6381-2.7077-0.50796-3.5102-0.32569-3.5102 0.79723 0 0.80066-1.0669 2.6973-2.3708 4.2148l-2.3708 2.7591-1.6537-2.3535c-0.9096-1.2944-1.9268-4.051-2.2606-6.1257-0.8341-5.1854-1.7583-5.3533-3.8564-0.70059-2.3291 5.1651-3.9317 5.151-3.1037-0.0272 0.7969-4.9838 0.1164-4.9814-4.8098 0.0168-5.5146 5.5953-7.2562 5.1366-4.0485-1.0665 2.9878-5.7778-1.1695-3.2133-11.982 7.3913-5.7993 5.6879-10.544 10.629-10.544 10.98 0 5.2823 4.1634 9.5341 11.5 11.744 2.2 0.66275 5.6696 2.0441 7.7102 3.0697 4.9311 2.4783 9.4241 2.4232 11.022-0.13533 0.6869-1.1 1.8157-2 2.5084-2s1.2595 0.9 1.2595 2c0 2.2853 0.837 2.4191 5.884 0.94087 2.8051-0.82162 4.513-0.7253 7.616 0.42954 5.4454 2.0266 7.4456 1.9601 11.275-0.37461zm-48.8-40.72c-4.2807-0.76794-4.3019-1.9752-0.047-2.6557 3.7373-0.59762 4.0256-0.85956 3.4539-3.1378-0.3835-1.5278-0.1968-2.4857 0.4845-2.4857 2.3638 0 0.938-1.6598-2.4909-2.8998-5.0251-1.8171-3.0528-3.3591 5.3617-4.192 3.7057-0.36679 7.5775-1.0144 8.6039-1.4392 1.6413-0.67918 1.7318-0.52079 0.75 1.3136-0.6139 1.1472-1.1163 3.1733-1.1163 4.5024 0 4.7363-2.0019 8.3454-5.5738 10.049-3.491 1.6647-4.7258 1.7886-9.4262 0.94533zm-1328.5 31.75c-15.003-4.5517-31.299-16.682-40.084-29.839-1.6268-2.4363-3.8784-2.4941-3.9712-0.10182-0.44838 11.553-6.0952 14.456-13.524 6.9529-2.156-2.18-3.921-4.29-3.921-4.69 0-0.39782-0.92447-2.633-2.0544-4.9671s-2.1493-5.4784-2.2653-6.9875c-0.29004-3.7735-1.9879-4.0104-4.8062-0.67059-12.287 14.56-45.95 8.2232-51.258-9.6488-2.8552-9.6146-5.3941-12.849-15.17-19.324-9.56-6.3323-4.5712-23.493 7.9097-27.208 7.5559-2.249 7.572-2.2697 6.3497-8.2032-4.3093-20.919 37.831-10.823 43.911 10.521 0.88261 3.0984 1.9834 6.0393 2.4462 6.5355 0.9354 1.0029 1.1767 0.48768 6.5107-13.902 5.3117-14.33 10.738-17.66 14.665-9 0.9976 2.2 2.1885 4.675 2.6464 5.5 1.5006 2.7033 4.4562 1.6221 7.3518-2.6894 5.9442-8.8507 21.99-11.72 23.788-4.2533 1.5779 6.5521-2.0393 15.525-9.6579 23.958l-3.5409 3.9194 2.5868 2.3974c5.2388 4.8552 3.5607 14.044-3.4132 18.689-1.925 1.2822-3.6275 2.417-3.7833 2.5217-0.15584 0.10478 1.3348 1.8087 3.3126 3.7864 4.4056 4.4056 4.8136 10.909 0.72074 11.49-3.0811 0.43758-2.9227 1.1073 2.4731 10.462 8.1195 14.077 25.091 26.569 38.527 28.358 3.2382 0.43118 4.75 1.1028 4.75 2.1101 0 4.1681-18.468-2.8538-30.206-11.485-6.606-4.8573-9.5268-8.608-16.968-21.789-4.6233-8.1892-8.4655-12.894-6.3096-7.7254 0.4015 0.9625 1.1802 3.1 1.7305 4.75 5.3152 15.938 22.407 31.28 41.707 37.436 5.5394 1.7671 9.8144 3.6293 9.4998 4.1382-0.79752 1.2904-3.0163 1.0569-9.9538-1.0478zm-48.292-28.35c0.4657-2.2529 0.37989-4.5834-0.20928-5.6843-0.54922-1.0262-1.0055-4.708-1.0139-8.1816-0.022-8.85-1.012-10-4.919-5.72-1.713 1.87-3.629 3.41-4.257 3.41-4.0333 0-0.20824 16.544 4.5675 19.756 2.6076 1.7534 5.0385 0.26357 5.8318-3.5741zm-32.207-10.61c6.5505-2.493 12.576-7.993 15.968-14.576 1.358-2.6353 3.1803-4.9775 4.0496-5.2049 7.7554-2.0281-1.2656-14.345-10.44-14.254-2.5752 0.0254-2.7924 0.19707-1.3286 1.0497 0.9625 0.5606 1.75 1.8444 1.75 2.853 0 1.0085 0.7875 2.1308 1.75 2.4939 6.4372 2.4285 7.2762 3.7669 4.4667 7.1251-3.325 3.97-13.217 7.3-13.217 4.44 0-0.55-1.055-1-2.344-1-2.569 0-7.656-3.84-7.656-5.78 0-0.69 1.308-1.22 3-1.22 2.9457 0 3.9712-1.2818 2-2.5-2.193-1.3554-0.9675-3.5 2-3.5 1.65 0 3-0.50812 3-1.1292 0-0.78875-1.8074-0.92467-5.9953-0.45087-7.6785 0.86872-12.081-1.0344-14.899-6.4412-2.783-5.34 0.007-13.98 4.514-13.98 4.973 0 4.576-11.04-0.583-16.2l-3.9627-3.9627-7.9278 0.45365c-11.59 0.6632-14.595 6.2126-6.6468 12.275 5.8082 4.4301 4.5471 6.8529-1.9535 3.753-3.8762-1.8484-5.9952-1.1006-3.0285 1.0687 1.6823 1.2301 1.249 1.4412-4.2749 2.0823-8.297 0.96-16.416 11.14-13.37 16.76 1.6433 3.04 12.296 9.77 15.449 9.77 5.458 0 7.8638 2.6157 2.9282 3.1836-3.4304 0.39471-3.4475 2.927-0.07726 11.429 5.0421 12.719 20.704 17.59 36.828 11.453zm-12.192-3.9814c-2.58-1.0152-5.9304-2.8208-7.4453-4.0124-2.37-1.8642-3.5126-2.0719-8.1862-1.488-6.5314 0.81604-6.8901-0.977-0.64265-3.212 5.14-1.8388 8.8836-1.0891 13.116 2.6267 3.1872 2.7984 3.9587 3.0018 11.384 3.0018 8.2138 0 10.01 0.97002 5.2152 2.8162-5.3375 2.055-8.7272 2.1226-13.441 0.2678zm57.161-6.84c-0.0662-1.4929-3.6549-5.0374-6.6886-6.6062-1.7062-0.88229-4.2429-3.0619-5.6373-4.8435-3.163-4.0416-4.3734-3.1844-1.8589 1.3166 2.4261 4.3427 14.304 12.828 14.185 10.133zm-1.0483-18.618c2.934-4.7472 2.8007-8.632-0.296-8.632-3.2016 0-4.498 1.8127-5.2571 7.3509-0.81712 5.9616 2.2264 6.6637 5.5531 1.2811zm-11.92-0.93c0-2.23 10.94-20 14.9-24.2 6.51-6.91 8.1-9.56 8.1-13.51 0-10.034-10.738-7.653-18 3.9912-0.825 1.3228-2.502 3.4537-3.7266 4.7352-3.091 3.23-4.273 5.69-4.273 8.89 0 1.5054-0.59057 3.4474-1.3124 4.3157-3.0414 3.6587-4.8329 9.5664-3.7582 12.393 1.382 3.63 8.071 6.43 8.071 3.38zm-12.638-6.7574c0.33646-1.6823 1.9677-5.8381 3.625-9.2351 3.2922-6.7481 3.7526-11.145 1.4814-14.147-0.80751-1.0676-1.4751-3.0926-1.4835-4.5s-0.42002-3.1983-0.91466-3.9798c-2.08-3.29-9.07 5.18-9.07 10.99 0 1.2486-0.70862 3.0532-1.5747 4.0102-3.4521 3.8145-2.3527 12.777 2.0323 16.567 4.752 4.1078 5.1372 4.1268 5.9042 0.29151zm-17.641 0.83137c2.9036-0.67506 5.2477-1.6876 5.209-2.25-0.17053-2.4811-1.6719-4.7096-3.932-5.8364-1.3433-0.66971-3.7221-3.1231-5.2861-5.4519-3.5133-5.2312-4.0891-5.2553-5.5934-0.23426-0.65914 2.2-1.7694 4-2.4672 4-3.3435 0-5.0533 2.6146-3.7567 5.7449 2.1132 5.1016 6.4549 6.2066 15.826 4.0278zm313.28 47.06c-3.575-2.2264-8.7017-5.2058-11.393-6.6208-5.6173-2.9539-10.249-7.3071-16.503-15.51-5.4954-7.2084-5.4842-7.2022-8.8332-4.8431-1.5243 1.0738-4.3876 2.2264-6.3628 2.5614-1.9753 0.33496-4.3163 1.3895-5.2023 2.3435-8.88 9.56-9.84 10.24-14.52 10.24-5.6896 0-10.57-3.0444-13.305-8.2987-1.0873-2.0893-2.744-4.056-3.6817-4.3705-9.6476-3.2357-32.333-23.347-30.603-27.13 0.42774-0.93539 0.96247-4.39 1.1883-7.6768 0.32084-4.6698 1.0812-6.9099 3.4787-10.248 1.6875-2.3498 2.7265-4.6105 2.309-5.0239-1.9926-1.9731-14.371-0.34756-21.191 2.7828-3.7876 1.7385-8.3701 3.8231-10.183 4.6324-15.609 6.9668-26.474-14.057-13.56-26.237 2.4262-2.2882 3.3564-4.0372 3.3564-6.311 0-1.73 0.4103-3.9269 0.91177-4.8819 0.50148-0.95504 1.8184-3.9842 2.9266-6.7315 1.7132-4.2475 2.5106-5.0965 5.3278-5.6727 5.4243-1.1094 12.207-4.9754 14.339-8.1732 6.9952-10.491 23.41-9.464 30.807 1.9281 2.9012 4.4677 4.945 5.2962 4.0364 1.6363-1.3212-5.322-3.3164-9.0185-6.8093-12.615-1.95-2.02-3.54-4.1-3.54-4.64 0-0.92344-1.4671-1.3981-3.3243-1.0754-0.45338 0.0787-0.53736-0.32113-0.18662-0.88865 0.35074-0.56751-0.0658-1.3018-0.92567-1.6318-0.86-0.32-1.56-1.22-1.56-1.99 0-0.76-0.62-1.39-1.38-1.39-0.76174 0-2.0998-1.0909-2.9734-2.4242s-2.6129-2.7452-3.865-3.1376c-9.04-2.83-11.92-14.44-3.58-14.44 3.9964 0 10.017-2.4025 12.997-5.1864 1.66-1.548 4.03-2.814 5.27-2.814 2.1266 0 6.8011-3.1244 11.083-7.4075 5.5539-5.5558 17.571-7.473 23.741-3.7877 1.7645 1.054 5.989 2.4838 9.3877 3.1774 8.039 1.6406 17.033 11.613 11.99 13.295-0.83894 0.27965-0.69409 1.8408 0.52428 5.6508 1.1989 3.7489 1.4132 5.9752 0.74474 7.7335-0.51632 1.358-0.93876 4.7669-0.93876 7.5753 0 2.8783-0.59587 5.795-1.3657 6.6849-3.4932 4.0381-2.9674 7.0787 1.2242 7.0787 2.1431 0 4.4202-0.63085 5.0601-1.4019 0.63991-0.77103 2.3825-1.7061 3.8724-2.0779 1.4899-0.37181 3.4004-1.2988 4.2456-2.06 10.479-9.4377 24.719-2.715 23.674 11.176-0.88 11.69-13.28 26.36-22.28 26.36-1.863 0-2.7636 5.4943-1.3427 8.1914 1.5811 3.0011 2.8267 3.7747 6.1078 3.7933 1.48 0.008 2.9863 0.49307 3.3471 1.077 0.36089 0.58393 1.7139 1.4638 3.0067 1.9554 4.6781 1.7786 5.8775 5.1953 3.9067 11.129-2.01 6.02-5.24 11.85-6.58 11.85-0.50747 0-1.3878 1.0207-1.9562 2.2683-1.739 3.8166-7.2757 6.9484-11.61 6.5671-4.426-0.38933-4.5109 0.26661-1.3006 10.056 2.7149 8.2789 5.1552 12.437 11.649 19.851 8.9829 10.255 9.5005 10.736 14.838 13.794 2.75 1.5752 5.3174 3.373 5.7053 3.9952 0.38792 0.62216 3.9726 2.6372 7.966 4.4778 7.3467 3.3863 7.9925 5.1461 1.0874 2.9633-11.297-3.5712-24.766-13.849-33.367-25.462-5.6295-7.6008-9.671-10.723-6.7324-5.2002 6.7021 12.595 24.585 27.164 40.125 32.689l5.2157 1.8544-4 0.0145c-2.9537 0.0107-5.7003-1.0444-10.5-4.0335zm-55.12-22.13c1.9921-1.9024 5.9199-4.2022 8.7284-5.1106 8.065-2.6088 13.501-12.128 9.6105-16.828-0.57279-0.69194-1.5528-4.1831-2.1778-7.7581-1.8007-10.3-2.8825-12.693-8.1398-18.006-3.61-3.65-4.46-5-3.14-5 3.5309 0 8.0305 4.0348 10.853 9.7321 3.3714 6.8048 10.767 6.1928 19.565-1.6189 8.1764-7.2596 7.2894-13.235-2.2196-14.952-2.4503-0.44254-4.3687-1.2564-4.2632-1.8087 0.10557-0.55224-2.0327-1.5742-4.7516-2.2711-2.7547-0.70601-4.6732-1.7046-4.3328-2.2552 0.33591-0.54351 1.6866-0.71816 3.0016-0.38812 2.729 0.68495 2.8906 0.0817 0.92108-3.438-0.90642-1.6198-1.1982-3.9963-0.82864-6.75l0.57032-4.25h-4.0769c-2.2423 0-4.355-0.45-4.6949-1-0.38156-0.61737 1.3586-1 4.548-1 3.8716 0 5.0389-0.3312 4.6588-1.3218-0.3691-0.96186 1.5067-1.6602 6.889-2.5645 12.635-2.123 18.71-9.9229 16.937-21.746-1.7301-11.537-11.337-12.246-24.975-1.8435-1.7852 1.3617-4.3284 2.4783-5.6515 2.4813-10.582 0.0245-21.828 11.057-21.91 21.494-0.0325 4.168-1.0354 7.5-2.2574 7.5-3.5182 0 2.3853-21.889 6.9884-25.911 10.856-9.4865 15.702-33.487 9.2968-46.042-2.89-5.668-7.02-6.907-7.02-2.105 0 1.6175-0.45 3.2191-1 3.559-0.56481 0.34907-1-0.46994-1-1.882 0-1.375-0.37277-2.7304-0.82837-3.012-0.4556-0.28158-0.62488 1.9419-0.37617 4.941 0.3 3.637 0.07 5.453-0.68 5.453-0.61 0-1.12-0.915-1.12-2.033 0-14.062-14.2-19.059-25.67-9.033-4.2723 3.7353-8.3699 6.3775-11.058 7.13-5.0243 1.4067-5.0336 1.4479-1.3067 5.8053 1.5851 1.8533 2.6686 3.9258 2.4078 4.6055-0.26083 0.67972 0.4934 2.8759 1.6761 4.8804 3.0991 5.2526 0.88404 4.4919-6.1313-2.1055-7.4343-6.9914-8.888-7.6095-13.033-5.5418l-3.2192 1.6059 2.918 2.4367c18.747 15.655 26.508 27.81 29.336 45.945 0.49777 3.1923 1.2479 6.9293 1.6669 8.3043 1.3323 4.3718-2.2946 0.45657-8.7878-9.4865-9.3447-14.309-18.108-18.357-24.944-11.52-4.0573 4.0573-3.5207 6.8334 1.8973 9.8164 4.1082 2.2619 6.1103 5.1939 2.5 3.6611-3.2374-1.3744-18.543-3.3625-21.434-2.7842-2.9251 0.58502-5.2107 3.1674-8.1576 9.2168-2.4043 4.9355-2.167 5.3549 2.5919 4.5813 3.477-0.56517 4.0226-0.45384 3 0.6121-1.7004 1.7724-1.5706 2.9029 0.33333 2.9029 2.9086 0 0.87801 2.2501-3.6284 4.0208-11.334 4.4533-13.973 7.7384-12.505 15.565 1.4 7.4628 6.8263 7.5486 26.05 0.41187 6.88-2.56 16.55-4 26.77-4 4.735 0 8.8872-0.45 9.2271-1 0.33992-0.55-0.14381-1-1.075-1-2.91 0-9.42-2.27-9.42-3.29 0-0.55301 1.5098-0.72754 3.5-0.40458 5.0813 0.82457 4.2881-0.55694-1.5-2.6127-7.0323-2.4976-6.2407-3.6812 2-2.9904 4.9328 0.41355 7 0.24871 7-0.55818 0-0.62-0.66-1.14-1.46-1.14-0.80565 0-1.9817-0.96584-2.6135-2.1463-1.2844-2.3999-1.1009-2.3849 6.5783 0.53669 8.1754 3.1104 10.675 2.1866 7.4035-2.736l-2.1-3.15 3.0965 3.2658c3.705 3.9075 3.8522 5.0064 0.77433 5.7789-1.4888 0.37368-2.776 1.8378-3.5868 4.08-0.6965 1.9261-2.3487 3.9912-3.6778 4.5967-1.3273 0.60475-2.4132 1.6498-2.4132 2.3224 0 1.3013-3.0705 2.42-6.7042 2.4425-4.7784 0.0296-10.283 10.079-12.303 22.459-0.97439 5.9735-0.74916 6.4161 8.0973 15.913 7.5406 8.0947 8.3407 8.5722 16.232 9.6876 6.5913 0.93167 7.6337 0.4153 7.6624-3.7956 0.008-1.2375 0.46531-2.25 1.0153-2.25 1.2227 0 1.2228 0.0686 0.006 7.4995-1.9486 11.9 6.7955 15.865 15.872 7.1976zm-15.864-34.615-1.1669-6.9179-3.563 2.4179c-5.0828 3.4493-6.7719 3.2623-4.8096-0.5324 2.2128-4.2792 1.9434-5.0832-1.4743-4.3997-3.6395 0.7279-3.6743 0.43244-0.5-4.2451 1.375-2.0262 2.5-4.2962 2.5-5.0444 0-2.0003 2.4225-1.656 4.5 0.63955 0.99549 1.1 2.4453 2 3.2217 2 0.77645 0 2.9567 1.1784 4.845 2.6187 3.184 2.4285 3.4333 2.4765 3.4333 0.66051 0-1.0906 1.0518-2.4374 2.374-3.0398 3.5332-1.6098 11.116 5.9505 8.1464 8.1221-1.8218 1.3321-1.8131 1.451 0.30198 4.1399 4.0025 5.0883 1.9193 7.4431-3.0952 3.4987-2.71-2.13-5.73-2.66-5.73-1 0 0.55-1.35 1-3 1-2.7619 0-3 0.27778-3 3.5 0 5.8986-1.7532 3.892-2.9862-3.4179zm21.018-22.153c-9.03-4.1-13.46-12.93-6.48-12.93 1.9575 0 3.31-0.40285 3.0057-0.89522-0.3043-0.49236 0.15595-1.1674 1.0228-1.5 2.3299-0.89408 2.6844-0.7558 2.0826 0.81246-0.67698 1.7642 1.1593 2.5292 4.526 1.8856 3.7248-0.71203 4.299 1.2494 0.79113 2.7024-4.1879 1.7347-3.7168 2.9947 1.1197 2.9947 3.5449 0 3.9992 0.2395 3.3191 1.75-0.43336 0.9625-0.77109 2.9875-0.75051 4.5 0.0465 3.4148-2.2203 3.593-8.6433 0.67944zm-18.369-5.9798c-2.083-1.6385-3.014-1.8323-4.6349-0.96481-3.6252 1.9402-2.3126-1.2189 1.9915-4.7928 4.4875-3.7263 5.3875-3.5463 7.4954 1.4984 2.7378 6.5524 0.52862 8.4916-4.852 4.2592zm708.73 63.22c-6.9806-5.073-15.244-13.181-19.864-19.489-2.4878-3.3973-5.1742-6.864-5.9697-7.7038-0.79556-0.83976-1.9169-2.7642-2.4919-4.2766l-1.0455-2.7498-4.9844 3.4286c-5.5357 3.8079-12.893 5.3933-17.283 3.7242-2.0116-0.76482-3.5849-0.6537-6.1969 0.43767-8.8649 3.704-17.04 0.0857-24.458-10.825-1.7903-2.6333-4.1217-5.329-5.181-5.9905-1.05-0.67-1.92-1.78-1.92-2.47s-0.64-1.26-1.41-1.26c-1.85 0-6.59-5.67-6.59-7.88 0-0.9478-0.49169-2.215-1.0926-2.8159-0.79019-0.79019-0.79019-1.6578 0-3.1343 0.60095-1.1229 1.0926-3.5964 1.0926-5.4966 0-4.4568 2.0661-6.7404 9.75-10.776 3.4375-1.8056 6.25-3.6467 6.25-4.0915 0-2.512-8.9814 1.1728-13.241 5.4323-0.96749 0.96749-2.1049 1.7591-2.5275 1.7591-0.42264 0-3.2254 3.6391-6.2282 8.087-6.4093 9.4934-7.0351 9.913-14.783 9.913-10.402 0-13.338-12.939-5.147-22.677 1.3344-1.5863 3.3262-4.8918 4.4262-7.3456s2.8192-5.2843 3.8205-6.2901c1.1472-1.1523 1.7292-3.0048 1.5737-5.0082-0.13577-1.7487 0.0836-4.3045 0.48739-5.6795 1.1957-4.0711 3.8757-10 4.5202-10 0.32897 0 0.59813-1.125 0.59813-2.5 0-3.737-3.9805-3.4053-6 0.5-0.85325 1.65-2.2148 3-3.0257 3-0.97147 0-1.4743 1.0232-1.4743 3 0 1.65-0.45 3-1 3s-1 0.63747-1 1.4166-1.2221 2.3068-2.7157 3.3949c-2.2604 1.6466-2.7508 2.8181-2.9247 6.9874-0.61728 14.799-21.534 29-27.873 18.924-2.81-4.48-10.48-3.36-10.48 1.53 0 8.6138-18.651 8.957-27.327 0.50293-1.5548-1.5151-3.3548-2.7689-4-2.7863-3.09-0.08-11.67-11.46-11.67-15.47 0-0.79476-2.8648-1.4047-8.4485-1.7987-12.829-0.90534-20.458-6.0207-21.961-14.724-0.0497-0.28791-1.1029-1.6103-2.3404-2.9386s-2.25-2.7687-2.25-3.2008c0-0.43217-1.3125-1.4645-2.9167-2.294-3.0746-1.5899-4.5177-4.7552-5.7186-12.543-0.38166-2.475-1.9913-6.975-3.577-10-5.3383-10.184-0.9499-20.321 10.357-23.924 3.3958-1.0821 4.799-3.0422 4.8418-6.7635 0.008-0.65317-2.2383-2.4133-4.9907-3.9113-12.262-6.6738-16.743-20.094-9.9877-29.913 1.6715-2.4295 3.4255-6.4852 3.8977-9.0129 1.2525-6.7043 3.8867-8.9837 11.886-10.285 6.2997-1.0248 7.0124-1.4202 11.708-6.4934 9.1129-9.8458 17.202-11.668 26.405-5.9471 4.4682 2.7775 6.1525 3.25 11.585 3.25 7.5624 0 11.327 2.4946 14.847 9.8371 2.9372 6.1279 4.3689 6.3107 5.2154 0.66584 1.1904-7.9382 9.8341-10.722 16.328-5.258 2.9102 2.4487 3.9502 2.6976 11.079 2.651 18.546-0.12119 37.352 30.067 28.29 45.411-2.78 4.683-2.84 7.092-0.25 9.679 2.4908 2.4908 4 2.5566 4 0.17431 0-1.9553 3.0866-5.1957 6.7467-7.0828 1.2357-0.63712 3.1664-2.961 4.2903-5.1642 2.1545-4.2232 7.0619-7.9173 10.526-7.9236 1.1346-0.0021 3.3632-1.3609 4.9524-3.0197 3.1958-3.3357 9.0935-5.3713 12.839-4.4313 2.89 0.724 13.65 10.067 13.65 11.846 0 4.2932 3.5584 12.259 7.1325 15.966 2.1929 2.2747 5.3404 6.9633 6.9944 10.419l3.0073 6.2835 4.3949-4.8882c22.076-24.553 66.007-24.751 53.502-0.24037l-2.1509 4.216 2.6106 3.4227c1.4 1.883 3 3.423 3.5 3.423 1.6323 0 3.0151 9.5733 2.6721 18.5-0.429 11.167-2.595 16.5-6.7015 16.5-2.7098 0-4.6794 2.4137-2.8781 3.527 0.526 0.32508 0.9563 3.3048 0.9563 6.6217 0 4.8578 0.3963 6.3536 2.0375 7.691 4.5405 3.7 5.3895 19.637 1.2338 23.163-0.9742 0.82664-3.3166 3.549-5.2053 6.0497-4.7876 6.3389-7.6928 8.2598-12.991 8.5897-7.279 0.45317-14.075-0.62658-14.075-2.2362 0-0.77339-0.675-1.4062-1.5-1.4062-1.2083 0-1.5 1.5556-1.5 8 0 6.2536-0.382 8.4005-1.75 9.8344-3.4337 3.5993-3.9531 5.4261-2.8214 9.923 1.4067 5.5898 13.351 18.737 20.196 22.231 8.2087 4.1894 14.468 9.1958 13.282 10.624-3.9675 4.7805-33.694-23.476-35.416-33.664-0.72-3.98-2.54-5.52-2.54-2.11 0 7.88 23.2 35.16 30 35.16 0.5735 0 1.0427 0.45 1.0427 1 0 1.7878-2.6166 1.0606-6.6-1.8342zm-58.447-31.623c1.9152-1.7333 6.6031-2.0704 7.5472-0.54274 2.0444 3.308 26.634-7.644 29.598-13.183 2.3763-4.4402-0.64038-21.538-5.1482-29.178-5.1303-8.6952-0.14865-4.9635 11.05 8.2778 2.59 3.0624 4.28 4.1642 6.5 4.2381 1.65 0.0549 4.4332 0.51768 6.1849 1.0284 4.4241 1.2898 10.807-0.57715 13.043-3.815 0.9747-1.4114 3.2346-4.2638 5.0221-6.3386 5.6926-6.6076 3.5499-15.005-6.2768-24.599-3.0594-2.987-5.205-5.4723-4.7679-5.5228s2.1447-0.16304 3.7947-0.25c4.7572-0.25072 3.704-5.563-2.3354-11.779-3.5881-3.6932-5.0108-6.1372-6.1646-10.59-1.3268-5.1204-1.9394-6.0034-5.3058-7.6477l-3.8057-1.859-9.6942 4.6526c-10.24 4.9144-16.98 10.875-19.24 17.016-2.7132 7.3706-7.056 12.076-5.5285 5.9903 4.9743-19.819 33.805-37.542 44.95-27.631 2.33 2.072 4.6249 7.2938 4.6249 10.523 0 4.3897 3.7984 7.9614 7.7797 7.3153 7.6947-1.2487 10.437-9.904 3.9703-12.529l-3.25-1.3192 3.2008-0.91582c3.5198-1.0071 4.8897-2.4012 3.3155-3.3741-0.559-0.34546-1.0163-1.8656-1.0163-3.378 0-4.2559-2.2242-6.5321-6.3828-6.5321-4.0355 0-4.7627-1.2407-1.4462-2.4675 3.5359-1.308 0.396-2.2699-4.1069-1.2582-3.224 0.72438-4.0641 0.62898-4.0641-0.46152 0-1.4341 3.6061-2.7632 6.0356-2.2246 0.9868 0.21875 1.5783-1.0315 1.9815-4.1882 0.316-2.475 1.1165-5.4829 1.7788-6.6843 5.6835-10.31-19.133-15.845-28.063-6.2594-1.1 1.073-2.3 1.948-2.8 1.948-1.1243 0-10.388 6.2909-13.706 9.3082-1.2405 1.1279-2.9802 4.5574-3.8661 7.6212-0.88585 3.0638-3.1118 9.3956-4.9466 14.071-1.8348 4.675-3.8687 10.75-4.5199 13.5-2.0178 8.5214-3.1799 7.7962-2.4034-1.5 0.42667-5.1087 1.534-10.295 2.7753-13 4.0628-8.8519 0.28457-26-5.7285-26-2.15 0-2.6-0.472-2.6-2.686 0-1.4771-0.86367-3.6146-1.9193-4.75s-2.6675-4.9718-3.582-8.5252c-3.2106-12.475-11.015-18.196-20.373-14.933-5.3386 1.861-6.2902 5.144-3.4891 12.037 1.3 3.2 2.36 6.276 2.36 6.837 0 2.0673-1.8349 0.93586-2.8058-1.7301-1.2946-3.5548-6.7808-9.9641-7.7312-9.0321-0.4 0.395-0.16 2.097 0.54 3.782 1.737 4.1935 0.62281 4.8176-2.4377 1.3654l-2.54-2.865-1.99 2.5c-1.0938 1.375-1.9988 3.059-2.011 3.7421-0.0122 0.68317-1.7097 2.0386-3.7722 3.0121l-3.75 1.77-0.0199 9.4879c-0.0172 8.2084-0.38805 10.28-2.75 15.359-3.8663 8.3141-3.3559 16.505 1.4036 22.525 4.1579 5.2595 7.1502 2.9975 9.2579-6.9984 3.0315-14.377 11.125-25.989 17.073-24.496 3.0405 0.76313 6.535 4.3591 6.535 6.7249 0 2.293 5.0172 18.097 6.1344 19.323 0.47609 0.5225 0.87511 1.8725 0.88671 3s1.1346 5.2 2.4956 9.05c2.664 7.5359 3.0658 9.9781 1.4806 8.9984-1.687-1.0426-4.6858-8.602-6.5448-16.498-0.97115-4.125-2.7559-9.525-3.9661-12s-2.5259-5.8475-2.9238-7.4944c-1.35-5.601-5.64-7.45-8.7-3.756-3.12 3.76-6.86 12.19-6.86 15.48 0 1.9006-0.63743 5.5737-1.4165 8.1624-0.93395 3.1033-1.1294 5.7078-0.57367 7.6454 0.93811 3.271-0.36093 4.9477-1.8172 2.3454-2.01-3.59-10.19 1.27-10.19 6.06 0 1.3425-0.45 2.7191-1 3.059-0.55 0.33992-1 2.6422-1 5.1162 0 8.6557-1.9255 13.437-8.1666 20.278-3.2084 3.517-5.8396 7.117-5.8471 8-0.008 0.88296-0.27836 2.5925-0.60188 3.799-1.7854 6.658 10.993 9.3456 14.273 3.0021 5.6829-10.99 14.808-17.881 25.593-19.33 5.2383-0.70341 5.2819-0.662 3.5122 3.337-1.3866 3.1332-2.8868 4.5297-7.2622 6.7598-5.7174 2.9141-6.6038 4.1203-7.1229 9.6932-0.61372 6.5879 2.3185 12.04 8.2527 15.346 2.6614 1.4824 5.0358 4.1501 7.6016 8.5404 5.8392 9.9914 14.127 13.564 19.721 8.5006zm6.7214-22.261c-0.28937-0.46821-0.84255-3.6482-1.2293-7.0665-0.9281-8.2034-4.2603-8.1137-6.9434 0.18673-1.5948 4.9338-2.9584 3.6064-2.9808-2.902-0.0194-5.6433-0.15444-5.9814-2.2707-5.6871-2.8163 0.3916-2.8784-1.181-0.28554-7.23 2.8039-6.5413 7.1773-3.0577 5.537 4.4105-0.80839 3.6806-0.0829 3.7941 2.8032 0.43882 2.2759-2.6459 7.6954-2.2048 7.6954 0.62635 0 2.3152 2.3138 0.20605 3.3831-3.0838 1.47-4.523 5.5051-5.0123 10.844-1.3151 6.3254 4.38 6.834 5.5774 2.2229 5.2332-4.2165-0.31477-4.7829 0.95197-1.8716 4.1859 3.4488 3.831 0.96904 5.1977-2.5788 1.4213-2.8364-3.0192-4.5877-3.1847-5.2898-0.5-0.6078 2.3242-2.7102 2.7121-2.7102 0.5 0-5.1615-3.9096 0.6716-4.2936 6.406-0.27425 4.0956-1.1028 5.8796-2.0323 4.3758zm35.243-28.696c-0.2292-0.22768-2.8917-0.53083-5.9167-0.67367-9.7932-0.46244-14.972-3.1549-15.035-7.8174 0-1.43-0.66-3.72-1.45-5.1-1.961-3.4304-1.8437-4.3231 0.48811-3.7134 1.0965 0.28674 3.0025-0.27198 4.25-1.2458 3.1376-2.4493 7.2921-3.7214 6.1983-1.898-0.44772 0.74642-1.6291 1.9452-2.6252 2.6638-2.3679 1.7083-2.3075 3.1933 0.12977 3.1933 1.0675 0 2.1949 0.41084 2.5052 0.91299 0.31034 0.50214 2.4208 1.2266 4.69 1.61 4.7992 0.81082 3.4725 2.4368-2.0087 2.4617-2.8836 0.0131-3.192 0.23273-2.1276 1.5153 0.68469 0.825 1.8972 1.5 2.6944 1.5 2.2512 0 10.374 5.0798 9.7468 6.0952-0.6221 1.0065-0.9117 1.0998-1.5245 0.4909zm-38.756-4.1331c-1.5552-3.4132-1.4828-3.69 0.77693-2.9728 1.93 0.6 6.08-1.26 6.08-2.73 0-0.42-1.1-0.76-2.44-0.76-1.3425 0-2.7326-0.47185-3.089-1.0486-0.44366-0.71786-1.0893-0.68234-2.0472 0.11263-1.0912 0.90565-1.5353 0.8063-2.018-0.45145-0.80227-2.0907-3.0142-2.073-3.8214 0.0305-0.34679 0.90372-0.8796 1.394-1.184 1.0896-0.30442-0.30442 1.1596-3.5319 3.2533-7.1722 4.2098-7.3195 6.2122-8.0207 7.601-2.6615 0.48399 1.8678 2.4249 5.4193 4.3132 7.8923 3.6039 4.7199 4.1619 6.2087 2.3271 6.2087-0.60834 0-1.991 1.125-3.0726 2.5-2.5219 3.2061-5.1872 3.1872-6.6608-0.0471zm-24.14-3.31c-1.925-0.97479-4.4-2.3067-5.5-2.9597-1.1-0.65306-3.2375-1.6264-4.75-2.1631-5.1868-1.8402-3.2311-3.3379 3.3818-2.5898 5.5078 0.62314 6.0657 0.52144 5.482-0.99943-0.54882-1.4302-0.18105-1.5994 2.3682-1.0896 3.609 0.72179 3.8145-0.34998 0.83899-4.3746-2.4309-3.288-1.8009-5.1529 0.92284-2.7319 0.96587 0.85852 3.4436 2.2578 5.5061 3.1095 4.2987 1.7752 4.3781 2.0686 1.9723 7.2914-4.0969 8.894-4.7224 9.2922-10.222 6.5072zm-91.559 16.901c0.74936-0.62192 1.9273-3.0437 2.6176-5.3817l1.2552-4.251 5.568-0.23299c7.1591-0.29957 7.7217-0.96445 5.7393-6.7824-1.9951-5.8553-2.0336-6.9883-0.18522-5.4543 0.78965 0.65535 1.7374 2.5651 2.1061 4.2438 0.39849 1.8143 1.4538 3.2571 2.602 3.5574 1.2647 0.33073 2.3326 2.0044 3.0931 4.8481 1.8713 6.9967 6.048 6.4538 12.763-1.6589 4.8023-5.8018 5.2662-6.7317 6.1514-12.331 0.42583-2.6938 1.6354-5.8446 2.6879-7.0018 3.199-3.5172 3.7054-9.2462 0.94592-10.7-6.6754-3.5164-16.829-10.785-20.836-14.916-6.43-6.63-13.95-8-13.95-2.55 0 1.795 1.241 2.9668 5.4976 5.191 6.9672 3.6405 7.0175 4.0576 0.71741 5.9506-1.0046 0.30186-0.93399 1.0648 0.32374 3.497 2.1526 4.1626 1.2723 4.6825-4.4732 2.6419-6.04-2.15-6.07-2.14-6.07 0.28 0 3.0379-2.5963 2.3889-4-1-1.8556-4.4797-5-0.4762-5 6.366 0 0.89-0.4 1.63-0.89 1.63-1.22 0-2.11-2.57-2.11-6.08 0-3.4784-1.4678-3.7931-3.1173-0.66821-1.2824 2.4294-7.8541 8.6403-9.2142 8.7084-0.45736 0.0229 0.10514-1.474 1.25-3.3264 2.454-3.9706 2.6662-5.7936 0.58156-4.9936-1.9213 0.73728-1.9037-1.5205 0.0318-4.0795 4.6118-6.0973 0.56622-8.2044-4.9113-2.558-4.375 4.51-7.3152 5.1692-7.801 1.7491-0.25274-1.7796-0.87876-2.1923-2.9944-1.9739-3.207 0.331-4.375-1.0748-2.3141-2.7852 0.81894-0.67966 1.504-1.7432 1.5223-2.3633 0.0472-1.6006 3.1458-5.102 5.2167-5.8948 3.96-1.51-0.12-3.73-6.87-3.73-1.53 0-2.38-0.58-2.38-1.63 0-1.3266 0.74852-1.5313 4.0039-1.0946 9.2601 1.242 10.714-2.0968 2.4961-5.7313-3.025-1.3378-5.5-2.9553-5.5-3.5944 0-0.7293 0.65167-0.87924 1.75-0.40265 3.4131 1.481 8.4653 1.7243 9.2556 0.44561 0.88097-1.4254 7.51-0.58392 8.541 1.0842 1.2209 1.9755-2.6866 11.925-4.6834 11.925-2.8303 0-2.2285 2.6036 1.1594 5.016 2.4202 1.7233 3.8179 2.0178 7.0144 1.4778 3.626-0.61261 4.2725-0.37404 7.0531 2.6026 3.538 3.7875 4.8688 2.9079 4.8947-3.2351 0.0141-3.3499 0.2881-3.6899 3.4521-4.2835 2.7986-0.52503 3.495-1.1492 3.75-3.3613 0.27079-2.3488 0.85475-2.7842 4.3132-3.2165 3.359-0.41988 4.2766-1.0608 5.7261-4 4.0548-8.2219 9.3884-12.64 8.5759-7.1041-0.4848 3.3032 0.0655 3.8366 1.9814 1.9208 0.65084-0.65083 1.5283-0.82306 1.95-0.38272 0.42167 0.44034-0.0851 1.3103-1.1261 1.9333-8.9332 5.3459-8.7025 8.7287 1.0323 15.143l2.8605 1.8846-2.3893 0.5717c-2.1107 0.50504-1.4917 1.1257 5.3085 5.3222 17.607 10.866 23.126 8.6553 21.944-8.7884-0.54187-7.9983-0.36836-9.4612 1.559-13.144 4.9691-9.4947 1.6281-24.307-4.1739-18.505-2.087 2.087-3.9682 1.4274-2.698-0.94598 1.0007-1.8698 0.89712-2.0236-0.96481-1.4326-2.42 0.768-2.56-0.02-0.58-3.476 5.08-8.888-3.44-17.413-12.61-12.625-5.52 2.88-21.89 21.936-21.89 25.481 0 0.61961-0.9 1.6886-2 2.3756-1.1 0.68696-2 1.8158-2 2.5085 0 1.3332-2.7738 1.6672-5.4182 0.65246-2.32-0.889-1.93-2.309 0.92-3.393 1.3952-0.53044 2.5-1.75 2.5-2.7596 0-0.99503 1.2925-2.5726 2.8722-3.5058 1.5797-0.93317 4.8422-4.4851 7.25-7.8931 13.626-19.286 22.456-23.771 30.779-15.634 3.9794 3.8906 5.1594 2.9171 5.2037-4.2933 0.0472-7.6819-8.9681-25.04-10.683-20.57-1.081 2.8172-2.4048 1.8227-1.7738-1.3325 1.9799-9.8995-8.5315-12.621-11.255-2.914-1.8462 6.58-4.0135 8.1163-3.0469 2.1599 0.92-5.71-1.06-9.258-5.17-9.258-1.8303 0-5.3079-1.1604-7.728-2.5787-10.188-5.9707-13.136 1.6411-7.2684 18.772 5.7057 16.659 0.60875 60.723-5.4527 47.139-0.67367-1.5098-0.49884-2.9412 0.60772-4.9757 0.85441-1.5709 2.1173-3.9812 2.8065-5.3562 5.2718-10.518 0.9521-36.195-7.5822-45.07-2.417-2.5133-5.5056-6.5633-6.8636-9-2.6854-4.8184-5.6708-6.8926-9.9533-6.9156-3.0545-0.01637-3.4968 1.474-1.348 4.5418 1.6191 2.3116 3.9684 10.406 3.2335 11.141-0.27278 0.27278-1.4869-1.4463-2.6979-3.8203-4.6-9.021-15.14-17.877-21.29-17.877-7.21 0-16.24 7.983-15.21 13.453 0.52 2.794 0.34 3.547-0.85 3.547-0.93487 0-1.2938 0.57373-0.93833 1.5 0.73578 1.9174 0.56203 1.8964-4.1384-0.5-7.1384-3.6393-12.392-1.584-14.057 5.5-0.38795 1.65-1.4937 3.9-2.4572 5-7.6214 8.7013-5.6082 22.407 4.2282 28.785 5.4202 3.5145 6.792 3.2001 8.508-1.9499 3.4674-10.406 15.131-16.261 22.778-11.435 8.3659 5.2805 30.5 27.922 30.5 31.199 0 2.0962-1.9844 0.52948-6.5683-5.1856-2.6844-3.3468-7.5922-8.2852-10.906-10.974-3.314-2.689-8.1987-6.8046-10.855-9.1458-8.9209-7.8631-16.184-4.5004-22.883 10.594-3.2426 7.3069-3.4143 9.2775-0.87836 10.082 4.012 1.2734 4.9287 3.8707 1.0707 3.0338l-3.4804-0.755 1.9105 2.1311c2.4788 2.765 1.5039 3.6332-2.5087 2.2344-12.417-4.3285-20.097 6.7731-13.757 19.884 2.3692 4.8995 3.1263 7.8058 3.0748 11.803-0.0865 6.7052 1.6775 7.6046 12.98 6.6187 8.9542-0.78108 9.7345 0.0319 3.8 3.9592-4.5442 3.0072-4.9229 4.8893-2.098 10.427 5.0052 9.8109 22.506 10.927 32.72 2.0867 5.622-4.8658 8.2912-4.0358 2.9026 0.9025-7.5497 6.9188-6.3696 15.774 2.8284 21.223 2.831 1.6773 7.3973 4.6528 10.147 6.6123 5.2039 3.708 10.528 4.2488 13.941 1.4163zm-11.596-65.893c-0.82266-8.7615 6.3317-13.306 11.747-7.4627 3.4427 3.7148 2.9044 6.9126-1.0919 6.4864-1.65-0.17593-3.15-0.73843-3.3333-1.25-0.56016-1.563-1.9977-1.0377-2.6324 0.96191-0.7982 2.5149-4.4792 3.5073-4.6898 1.2644z"/>
</svg>
